<svg width="50" height="50" viewBox="0 0 50 50" fill="none" xmlns="http://www.w3.org/2000/svg">
    <path d="M24.4909 0L1 8.26705L4.71193 39.044L24.5159 49.9287L44.4219 38.8963L48.1327 8.12045L24.4909 0Z"
          fill="#B2B2B2"/>
    <path d="M45.7897 9.89901L24.4363 2.61719V47.3277L42.3315 37.424L45.7897 9.89901Z" fill="#B52E31"/>
    <path d="M3.63611 10.0311L6.81679 37.5564L24.4358 47.3286V2.61719L3.63611 10.0311Z" fill="#E23237"/>
    <path d="M29.3857 24.856L24.4749 14.6012L20.1519 24.856H29.3857ZM31.2579 29.1682H18.2408L15.3286 36.4523L9.91187 36.5523L24.4363 4.24121L39.467 36.552H34.4462L31.2579 29.1682Z"
          fill="#F2F2F2"/>
    <path d="M24.4363 4.24121L24.475 14.6012L29.3806 24.8639H24.4471L24.436 29.1614L31.2576 29.1679L34.446 36.5531L39.6292 36.6494L24.4363 4.24121Z"
          fill="#B2B2B2"/>
</svg>
