<svg width="50" height="48" viewBox="0 0 50 48" fill="none" xmlns="http://www.w3.org/2000/svg">
    <path d="M16.6069 0.449785H31.3476L16.0453 45.7889C15.8881 46.2548 15.5886 46.6596 15.1892 46.9464C14.7898 47.2332 14.3105 47.3875 13.8188 47.3876H2.34685C1.97429 47.3877 1.60707 47.299 1.27558 47.129C0.944086 46.9589 0.657844 46.7124 0.440533 46.4098C0.223223 46.1072 0.0810908 45.7571 0.0258954 45.3887C-0.0293 45.0202 0.00402807 44.6439 0.123122 44.2909L14.3798 2.04852C14.537 1.58243 14.8365 1.17741 15.236 0.890496C15.6356 0.603585 16.115 0.449812 16.6069 0.449785Z"
          fill="url(#paint0_linear_546_2348)"/>
    <path d="M38.0274 30.8608H14.6522C14.4348 30.8606 14.2225 30.9258 14.0428 31.048C13.863 31.1702 13.7243 31.3436 13.6445 31.5458C13.5648 31.748 13.5478 31.9694 13.5958 32.1814C13.6437 32.3934 13.7544 32.586 13.9134 32.7341L28.9337 46.7536C29.3711 47.1616 29.9469 47.3884 30.5449 47.3882H43.7809L38.0274 30.8608Z"
          fill="#0078D4"/>
    <path d="M16.6069 0.449724C16.1096 0.447816 15.6248 0.604954 15.2232 0.898184C14.8216 1.19141 14.5242 1.60537 14.3746 2.07959L0.140604 44.2524C0.0134975 44.6067 -0.0264072 44.9864 0.0242654 45.3593C0.074938 45.7323 0.214697 46.0876 0.43172 46.3952C0.648743 46.7027 0.936645 46.9534 1.27107 47.1262C1.6055 47.2989 1.97661 47.3886 2.35301 47.3876H14.121C14.5593 47.3093 14.969 47.116 15.3081 46.8276C15.6473 46.5391 15.9038 46.1658 16.0515 45.7458L18.89 37.3802L29.0293 46.8373C29.4542 47.1887 29.9872 47.3831 30.5386 47.3876H43.7253L37.9418 30.8602L21.0821 30.8641L31.4008 0.449724H16.6069Z"
          fill="url(#paint1_linear_546_2348)"/>
    <path d="M35.4345 2.04617C35.2775 1.58084 34.9785 1.17649 34.5796 0.890081C34.1806 0.603674 33.7019 0.44965 33.2108 0.449707H16.7825C17.2736 0.449735 17.7523 0.603792 18.1512 0.890187C18.5501 1.17658 18.8491 1.58089 19.0062 2.04617L33.2634 44.2903C33.3826 44.6434 33.416 45.0197 33.3609 45.3883C33.3057 45.7568 33.1636 46.107 32.9463 46.4097C32.729 46.7124 32.4427 46.9591 32.1112 47.1292C31.7797 47.2993 31.4124 47.3881 31.0397 47.3881H47.4686C47.8412 47.388 48.2084 47.2992 48.5399 47.129C48.8714 46.9588 49.1576 46.7122 49.3748 46.4095C49.5921 46.1067 49.7341 45.7567 49.7892 45.3882C49.8444 45.0197 49.8109 44.6433 49.6918 44.2903L35.4345 2.04617Z"
          fill="url(#paint2_linear_546_2348)"/>
    <defs>
        <linearGradient id="paint0_linear_546_2348" x1="21.9794" y1="3.92805" x2="6.6709" y2="49.1534"
                        gradientUnits="userSpaceOnUse">
            <stop stop-color="#114A8B"/>
            <stop offset="1" stop-color="#0669BC"/>
        </linearGradient>
        <linearGradient id="paint1_linear_546_2348" x1="26.7614" y1="25.0042" x2="23.2203" y2="26.2015"
                        gradientUnits="userSpaceOnUse">
            <stop stop-opacity="0.3"/>
            <stop offset="0.071" stop-opacity="0.2"/>
            <stop offset="0.321" stop-opacity="0.1"/>
            <stop offset="0.623" stop-opacity="0.05"/>
            <stop offset="1" stop-opacity="0"/>
        </linearGradient>
        <linearGradient id="paint2_linear_546_2348" x1="24.8141" y1="2.6089" x2="41.6183" y2="47.3785"
                        gradientUnits="userSpaceOnUse">
            <stop stop-color="#3CCBF4"/>
            <stop offset="1" stop-color="#2892DF"/>
        </linearGradient>
    </defs>
</svg>
