<svg width="31" height="31" viewBox="0 0 31 31" fill="none" xmlns="http://www.w3.org/2000/svg">
    <path d="M5.24971 10.5C8.01097 10.5 10.2494 8.26142 10.2494 5.5C10.2494 2.73858 8.01097 0.5 5.24971 0.5C2.48844 0.5 0.25 2.73858 0.25 5.5C0.25 8.26142 2.48844 10.5 5.24971 10.5Z"
          fill="white"/>
    <path d="M5.24971 20.5C8.01097 20.5 10.2494 18.2614 10.2494 15.5C10.2494 12.7386 8.01097 10.5 5.24971 10.5C2.48844 10.5 0.25 12.7386 0.25 15.5C0.25 18.2614 2.48844 20.5 5.24971 20.5Z"
          fill="white"/>
    <path d="M5.24971 30.5C8.01097 30.5 10.2494 28.2614 10.2494 25.5C10.2494 22.7386 8.01097 20.5 5.24971 20.5C2.48844 20.5 0.25 22.7386 0.25 25.5C0.25 28.2614 2.48844 30.5 5.24971 30.5Z"
          fill="white"/>
    <path d="M15.2075 10.5C17.9687 10.5 20.2072 8.26142 20.2072 5.5C20.2072 2.73858 17.9687 0.5 15.2075 0.5C12.4462 0.5 10.2078 2.73858 10.2078 5.5C10.2078 8.26142 12.4462 10.5 15.2075 10.5Z"
          fill="white"/>
    <path d="M15.208 20.5C17.9692 20.5 20.2077 18.2614 20.2077 15.5C20.2077 12.7386 17.9692 10.5 15.208 10.5C12.4467 10.5 10.2083 12.7386 10.2083 15.5C10.2083 18.2614 12.4467 20.5 15.208 20.5Z"
          fill="white"/>
    <path d="M15.2075 30.5C17.9687 30.5 20.2072 28.2614 20.2072 25.5C20.2072 22.7386 17.9687 20.5 15.2075 20.5C12.4462 20.5 10.2078 22.7386 10.2078 25.5C10.2078 28.2614 12.4462 30.5 15.2075 30.5Z"
          fill="white"/>
    <path d="M25.1652 10.5C27.9265 10.5 30.1649 8.26142 30.1649 5.5C30.1649 2.73858 27.9265 0.5 25.1652 0.5C22.404 0.5 20.1655 2.73858 20.1655 5.5C20.1655 8.26142 22.404 10.5 25.1652 10.5Z"
          fill="white"/>
    <path d="M25.1652 20.5C27.9265 20.5 30.1649 18.2614 30.1649 15.5C30.1649 12.7386 27.9265 10.5 25.1652 10.5C22.404 10.5 20.1655 12.7386 20.1655 15.5C20.1655 18.2614 22.404 20.5 25.1652 20.5Z"
          fill="white"/>
    <path d="M25.1652 30.5C27.9265 30.5 30.1649 28.2614 30.1649 25.5C30.1649 22.7386 27.9265 20.5 25.1652 20.5C22.404 20.5 20.1655 22.7386 20.1655 25.5C20.1655 28.2614 22.404 30.5 25.1652 30.5Z"
          fill="white"/>
</svg>
