<svg width="51" height="50" viewBox="0 0 51 50" fill="none" xmlns="http://www.w3.org/2000/svg">
    <g clip-path="url(#clip0_541_1462)">
        <path d="M6.01572 10.207C5.92139 7.49805 8.03203 5 10.885 5H40.1187C42.9716 5 45.0822 7.49805 44.9879 10.207C44.8973 12.8093 45.0149 16.1802 45.8633 18.9287C46.7144 21.6857 48.1495 23.4284 50.5 23.6523V26.1914C48.1495 26.4153 46.7144 28.158 45.8633 30.915C45.0149 33.6636 44.8973 37.0345 44.9879 39.6368C45.0822 42.3457 42.9716 44.8438 40.1187 44.8438H10.885C8.03203 44.8438 5.92139 42.3457 6.01582 39.6368C6.10635 37.0345 5.98867 33.6636 5.14023 30.915C4.28926 28.158 2.85059 26.4153 0.5 26.1914V23.6523C2.85049 23.4284 4.28926 21.6857 5.14023 18.9287C5.98867 16.1802 6.10635 12.8093 6.01572 10.207Z"
              fill="url(#paint0_linear_541_1462)"/>
        <g filter="url(#filter0_d_541_1462)">
            <path d="M26.5843 35.5137C31.2031 35.5137 33.9865 33.2521 33.9865 29.522C33.9865 26.7023 32.0005 24.661 29.0517 24.3379V24.2204C31.2182 23.868 32.9183 21.8561 32.9183 19.6092C32.9183 16.4077 30.3907 14.3223 26.5392 14.3223H17.8732V35.5137H26.5843ZM21.2433 17.0098H25.7268C28.1641 17.0098 29.5482 18.0965 29.5482 20.0644C29.5482 22.1645 27.9384 23.3393 25.0197 23.3393H21.2433V17.0098ZM21.2433 32.8263V25.8506H25.6966C28.8862 25.8506 30.5411 27.0254 30.5411 29.3164C30.5411 31.6073 28.9314 32.8263 25.8922 32.8263H21.2433Z"
                  fill="url(#paint1_linear_541_1462)"/>
        </g>
    </g>
    <defs>
        <filter id="filter0_d_541_1462" x="1.87317" y="2.32227" width="48.1133" height="53.1914"
                filterUnits="userSpaceOnUse" color-interpolation-filters="sRGB">
            <feFlood flood-opacity="0" result="BackgroundImageFix"/>
            <feColorMatrix in="SourceAlpha" type="matrix" values="0 0 0 0 0 0 0 0 0 0 0 0 0 0 0 0 0 0 127 0"
                           result="hardAlpha"/>
            <feOffset dy="4"/>
            <feGaussianBlur stdDeviation="8"/>
            <feColorMatrix type="matrix" values="0 0 0 0 0 0 0 0 0 0 0 0 0 0 0 0 0 0 0.15 0"/>
            <feBlend mode="normal" in2="BackgroundImageFix" result="effect1_dropShadow_541_1462"/>
            <feBlend mode="normal" in="SourceGraphic" in2="effect1_dropShadow_541_1462" result="shape"/>
        </filter>
        <linearGradient id="paint0_linear_541_1462" x1="7.92959" y1="6.05449" x2="51.6211" y2="40.7368"
                        gradientUnits="userSpaceOnUse">
            <stop stop-color="#9013FE"/>
            <stop offset="1" stop-color="#6610F2"/>
        </linearGradient>
        <linearGradient id="paint1_linear_541_1462" x1="19.3973" y1="15.7171" x2="29.1635" y2="32.2339"
                        gradientUnits="userSpaceOnUse">
            <stop stop-color="white"/>
            <stop offset="1" stop-color="#F1E5FC"/>
        </linearGradient>
        <clipPath id="clip0_541_1462">
            <rect width="50" height="50" fill="white" transform="translate(0.5)"/>
        </clipPath>
    </defs>
</svg>
