<svg width="51" height="50" viewBox="0 0 51 50" fill="none" xmlns="http://www.w3.org/2000/svg">
    <g clip-path="url(#clip0_541_1334)">
        <path d="M25.398 29.6304C25.3328 29.6125 24.3284 29.3535 23.261 29.3535C21.2402 29.3535 20.0235 30.4447 20.0235 32.0697C20.0235 33.5081 21.0413 34.2255 22.2629 34.6114C22.3983 34.6561 22.5978 34.7186 22.7307 34.7625C23.2744 34.9336 23.7085 35.1878 23.7085 35.6281C23.7085 36.1204 23.2068 36.4392 22.1163 36.4392C21.158 36.4392 20.2392 36.1651 20.0457 36.1162V38.1156C20.1536 38.1385 21.2455 38.3528 22.4119 38.3528C24.0897 38.3528 26.0089 37.6197 26.0089 35.4373C26.0089 34.3787 25.3608 33.4042 23.9379 32.9519L23.333 32.7593C22.9721 32.6454 22.3279 32.4609 22.3279 31.932C22.3279 31.5142 22.8052 31.22 23.6842 31.22C24.4425 31.22 25.3654 31.4748 25.398 31.485V29.6304ZM43.9261 33.8533C43.9261 35.1174 42.9578 36.1401 41.6585 36.1401C40.3578 36.1401 39.392 35.1174 39.392 33.8533C39.392 32.5917 40.3578 31.5686 41.6585 31.5686C42.9578 31.5686 43.9261 32.5917 43.9261 33.8533ZM41.6585 29.3563C38.9862 29.3563 37.0698 31.3718 37.0698 33.8533C37.0698 36.3387 38.9862 38.3528 41.6585 38.3528C44.3305 38.3528 46.2497 36.3387 46.2497 33.8533C46.2497 31.3718 44.3305 29.3563 41.6585 29.3563ZM17.0835 38.1982H14.8909V29.5102H17.0835"
              fill="#049FD9"/>
        <path d="M11.8774 29.6668C11.6714 29.6057 10.9098 29.3555 9.87833 29.3555C7.21027 29.3555 5.25171 31.2578 5.25171 33.8525C5.25171 36.6518 7.41375 38.352 9.87833 38.352C10.8575 38.352 11.6049 38.1201 11.8774 38.0427V35.7106C11.7832 35.7629 11.0665 36.1717 10.0355 36.1717C8.57486 36.1717 7.63273 35.1437 7.63273 33.8525C7.63273 32.5219 8.6156 31.5351 10.0355 31.5351C11.0841 31.5351 11.7892 31.9529 11.8774 31.999"
              fill="#049FD9"/>
        <path d="M34.7617 29.6668C34.5557 29.6057 33.7941 29.3555 32.7626 29.3555C30.0946 29.3555 28.136 31.2578 28.136 33.8525C28.136 36.6518 30.298 38.352 32.7626 38.352C33.7418 38.352 34.4892 38.1201 34.7617 38.0427V35.7106C34.6675 35.7629 33.9508 36.1717 32.9198 36.1717C31.4591 36.1717 30.517 35.1437 30.517 33.8525C30.517 32.5219 31.4999 31.5351 32.9198 31.5351C33.9684 31.5351 34.6735 31.9529 34.7617 31.999"
              fill="#049FD9"/>
        <path d="M14.8845 13.0845C14.8845 12.4856 14.3954 12 13.7958 12C13.1965 12 12.7074 12.4856 12.7074 13.0845V24.6215C12.7074 25.2238 13.1965 25.7093 13.7958 25.7093C14.3954 25.7093 14.8845 25.2238 14.8845 24.6215V13.0845ZM8.90556 17.1799C8.90556 16.5813 8.41667 16.0949 7.81713 16.0949C7.21759 16.0949 6.7287 16.5813 6.7287 17.1799V22.4542C6.7287 23.0562 7.21759 23.5419 7.81713 23.5419C8.41667 23.5419 8.90556 23.0562 8.90556 22.4542V17.1799ZM2.92685 20.1734C2.92685 19.5745 2.43796 19.0891 1.83843 19.0891C1.23958 19.0891 0.75 19.5745 0.75 20.1734V22.4542C0.75 23.0562 1.23958 23.5419 1.83843 23.5419C2.43796 23.5419 2.92685 23.0562 2.92685 22.4542"
              fill="#049FD9"/>
        <path d="M12.7073 13.0845C12.7073 12.4856 13.1964 12 13.796 12C14.3953 12 14.8844 12.4856 14.8844 13.0845V24.6215C14.8844 25.2238 14.3953 25.7093 13.796 25.7093C13.1964 25.7093 12.7073 25.2238 12.7073 24.6215V13.0845ZM18.6862 17.1799C18.6862 16.5813 19.1751 16.0949 19.7747 16.0949C20.3742 16.0949 20.8631 16.5813 20.8631 17.1799V22.4542C20.8631 23.0562 20.3742 23.5419 19.7747 23.5419C19.1751 23.5419 18.6862 23.0562 18.6862 22.4542V17.1799ZM24.6649 20.1734C24.6649 19.5745 25.1538 19.0891 25.7534 19.0891C26.3522 19.0891 26.8418 19.5745 26.8418 20.1734V22.4542C26.8418 23.0562 26.3522 23.5419 25.7534 23.5419C25.1538 23.5419 24.6649 23.0562 24.6649 22.4542"
              fill="#049FD9"/>
        <path d="M36.6155 13.0845C36.6155 12.4856 37.1046 12 37.7042 12C38.3035 12 38.7926 12.4856 38.7926 13.0845V24.6215C38.7926 25.2238 38.3035 25.7093 37.7042 25.7093C37.1046 25.7093 36.6155 25.2238 36.6155 24.6215V13.0845ZM42.5944 17.1799C42.5944 16.5813 43.0833 16.0949 43.6829 16.0949C44.2824 16.0949 44.7713 16.5813 44.7713 17.1799V22.4542C44.7713 23.0562 44.2824 23.5419 43.6829 23.5419C43.0833 23.5419 42.5944 23.0562 42.5944 22.4542V17.1799ZM48.5731 20.1734C48.5731 19.5745 49.062 19.0891 49.6616 19.0891C50.2604 19.0891 50.75 19.5745 50.75 20.1734V22.4542C50.75 23.0562 50.2604 23.5419 49.6616 23.5419C49.062 23.5419 48.5731 23.0562 48.5731 22.4542"
              fill="#049FD9"/>
        <path d="M38.7927 13.0845C38.7927 12.4856 38.3036 12 37.704 12C37.1047 12 36.6156 12.4856 36.6156 13.0845V24.6215C36.6156 25.2238 37.1047 25.7093 37.704 25.7093C38.3036 25.7093 38.7927 25.2238 38.7927 24.6215V13.0845ZM32.8138 17.1799C32.8138 16.5813 32.3249 16.0949 31.7253 16.0949C31.1258 16.0949 30.6369 16.5813 30.6369 17.1799V22.4542C30.6369 23.0562 31.1258 23.5419 31.7253 23.5419C32.3249 23.5419 32.8138 23.0562 32.8138 22.4542V17.1799ZM26.8351 20.1734C26.8351 19.5745 26.3462 19.0891 25.7466 19.0891C25.1478 19.0891 24.6582 19.5745 24.6582 20.1734V22.4542C24.6582 23.0562 25.1478 23.5419 25.7466 23.5419C26.3462 23.5419 26.8351 23.0562 26.8351 22.4542"
              fill="#049FD9"/>
    </g>
    <defs>
        <clipPath id="clip0_541_1334">
            <rect width="50" height="50" fill="white" transform="translate(0.75)"/>
        </clipPath>
    </defs>
</svg>
