<svg width="50" height="50" viewBox="0 0 50 50" fill="none" xmlns="http://www.w3.org/2000/svg">
    <path fill-rule="evenodd" clip-rule="evenodd"
          d="M13.8142 18.229C14.1773 17.9025 14.3736 17.6582 14.0805 17.6582C13.468 17.6582 9.75943 18.2054 8.99538 15.4042C8.23081 12.6034 12.3192 4.15193 12.4733 3.78969C12.6214 3.44172 12.3154 3 11.8664 3C11.4255 3 11.1021 3.4784 11.0556 3.53699C6.88285 8.76956 1.05746 15.3046 0.307046 18.1216C-1.59146 25.2536 5.7489 28.1442 10.3822 28.6724C10.4644 28.6816 10.505 28.6168 10.505 28.5668V26.0344C10.505 22.6169 11.784 20.0573 13.8142 18.229Z"
          fill="#13C636"/>
    <path fill-rule="evenodd" clip-rule="evenodd"
          d="M36.1226 18.229C35.7595 17.9025 35.5632 17.6582 35.8563 17.6582C36.4687 17.6582 40.1773 18.2054 40.9414 15.4042C41.706 12.6034 37.6177 4.15193 37.4634 3.78969C37.3155 3.44172 37.6215 3 38.0704 3C38.5113 3 38.8347 3.4784 38.8812 3.53699C43.054 8.76956 48.8793 15.3046 49.6298 18.1216C51.5282 25.2536 44.1879 28.1442 39.5546 28.6724C39.4725 28.6816 39.432 28.6168 39.432 28.5668V26.0344C39.432 22.6169 38.1528 20.0573 36.1226 18.229Z"
          fill="#13C636"/>
    <path fill-rule="evenodd" clip-rule="evenodd"
          d="M30.6918 28.4123C30.6918 28.4814 30.6656 28.5448 30.6222 28.5905C30.5749 28.641 30.5074 28.6732 30.4332 28.6732H19.2035V26.6169C19.2035 23.8117 22.5102 22.4958 25.1217 22.4958C27.563 22.4958 30.6934 23.8117 30.6934 26.6169L30.6918 28.4123ZM25.1217 16.3711C19.3309 16.4287 12.959 19.8053 12.959 26.6169V36.9764C12.959 43.9022 19.3309 47.1653 25.1217 47.2222C29.2704 47.1806 33.994 45.4504 36.2421 41.7825C36.3172 41.6608 36.2507 41.5003 36.1366 41.433C34.1544 40.2872 33.0038 39.6526 31.0394 38.5379C30.9774 38.5028 30.9106 38.5028 30.8605 38.587C29.7872 40.3895 27.0477 41.3843 25.1217 41.3843C22.5102 41.3843 19.2035 39.7812 19.2035 36.9764V33.8814H35.2563C36.1139 33.8814 36.8086 33.1808 36.8086 32.3159V26.6169C36.8086 19.8053 30.799 16.4287 25.1217 16.3711Z"
          fill="#13C636"/>
</svg>
