<svg width="51" height="50" viewBox="0 0 51 50" fill="none" xmlns="http://www.w3.org/2000/svg">
    <g clip-path="url(#clip0_541_1457)">
        <path d="M50.5 0H0.5V50H50.5V0Z" fill="#F7DF1E"/>
        <path d="M34.0873 39.0625C35.0944 40.7069 36.4047 41.9156 38.7222 41.9156C40.669 41.9156 41.9127 40.9426 41.9127 39.5982C41.9127 37.9871 40.6349 37.4164 38.492 36.4791L37.3174 35.9752C33.9269 34.5307 31.6746 32.7212 31.6746 28.8958C31.6746 25.372 34.3595 22.6895 38.5555 22.6895C41.5428 22.6895 43.6904 23.7291 45.2381 26.4514L41.5793 28.8006C40.7738 27.3561 39.9047 26.7871 38.5555 26.7871C37.1793 26.7871 36.3071 27.6601 36.3071 28.8006C36.3071 30.2101 37.1801 30.7807 39.196 31.6537L40.3706 32.1569C44.3627 33.8688 46.6166 35.6141 46.6166 39.5379C46.6166 43.768 43.2936 46.0855 38.8309 46.0855C34.4674 46.0855 31.6484 44.0061 30.269 41.2807L34.0873 39.0625ZM17.4896 39.4696C18.2277 40.7791 18.8992 41.8863 20.5135 41.8863C22.0571 41.8863 23.0309 41.2823 23.0309 38.9339V22.9577H27.7293V38.9974C27.7293 43.8625 24.8769 46.0768 20.7135 46.0768C16.9515 46.0768 14.773 44.1299 13.665 41.7851L17.4896 39.4696Z"
              fill="black"/>
    </g>
    <defs>
        <clipPath id="clip0_541_1457">
            <rect width="50" height="50" fill="white" transform="translate(0.5)"/>
        </clipPath>
    </defs>
</svg>
