<svg width="51" height="50" viewBox="0 0 51 50" fill="none" xmlns="http://www.w3.org/2000/svg">
    <g clip-path="url(#clip0_541_1530)">
        <path d="M19.0362 38.7188C19.0362 38.7188 17.1266 39.8293 20.3952 40.205C24.355 40.6568 26.3788 40.592 30.7426 39.7661C30.7426 39.7661 31.8899 40.4855 33.4921 41.1085C23.7097 45.3011 11.3526 40.8657 19.0362 38.7188Z"
              fill="#5382A1"/>
        <path d="M17.8409 33.248C17.8409 33.248 15.6991 34.8335 18.9701 35.1718C23.2001 35.6082 26.5407 35.6439 32.3211 34.5308C32.3211 34.5308 33.1206 35.3414 34.3778 35.7846C22.5503 39.2432 9.37651 36.0574 17.8409 33.248Z"
              fill="#5382A1"/>
        <path d="M27.9181 23.9666C30.3285 26.7417 27.2848 29.239 27.2848 29.239C27.2848 29.239 33.4052 26.0795 30.5944 22.123C27.9692 18.4333 25.956 16.6001 36.8546 10.2793C36.8546 10.2793 19.7474 14.5519 27.9181 23.9666Z"
              fill="#F8981D"/>
        <path d="M40.8562 42.7654C40.8562 42.7654 42.2693 43.9298 39.2999 44.8306C33.6533 46.5411 15.7984 47.0577 10.8383 44.8988C9.05532 44.1231 12.399 43.0467 13.4507 42.8208C14.5476 42.5829 15.1745 42.6272 15.1745 42.6272C13.1916 41.2304 2.35794 45.37 9.67152 46.5556C29.6167 49.7901 46.0297 45.099 40.8562 42.7654Z"
              fill="#5382A1"/>
        <path d="M19.9546 27.5794C19.9546 27.5794 10.8725 29.7366 16.7384 30.5199C19.2152 30.8515 24.1526 30.7765 28.7517 30.3912C32.5103 30.0741 36.2844 29.4 36.2844 29.4C36.2844 29.4 34.9591 29.9676 34.0002 30.6223C24.7774 33.0479 6.96071 31.9195 12.0899 29.4384C16.4277 27.3416 19.9546 27.5794 19.9546 27.5794Z"
              fill="#5382A1"/>
        <path d="M36.2468 36.6853C45.6222 31.8135 41.2874 27.1317 38.2617 27.7625C37.5201 27.9168 37.1895 28.0506 37.1895 28.0506C37.1895 28.0506 37.4648 27.6193 37.9906 27.4326C43.9763 25.3282 48.5797 33.6392 36.0583 36.9308C36.0583 36.9308 36.2034 36.8013 36.2468 36.6853Z"
              fill="#5382A1"/>
        <path d="M30.5945 0.0732422C30.5945 0.0732422 35.7868 5.26723 25.6699 13.2541C17.5572 19.661 23.82 23.314 25.6665 27.4877C20.931 23.2151 17.4558 19.454 19.7873 15.9534C23.2093 10.8149 32.6895 8.32358 30.5945 0.0732422Z"
              fill="#F8981D"/>
        <path d="M20.8758 49.8874C29.875 50.4634 43.6943 49.5677 44.0216 45.3096C44.0216 45.3096 43.3925 46.9238 36.5843 48.2058C28.9033 49.6512 19.4298 49.4825 13.811 48.5561C13.811 48.5561 14.9613 49.5081 20.8758 49.8874Z"
              fill="#5382A1"/>
    </g>
    <defs>
        <clipPath id="clip0_541_1530">
            <rect width="50" height="50" fill="white" transform="translate(0.166748)"/>
        </clipPath>
    </defs>
</svg>
