<svg width="51" height="50" viewBox="0 0 51 50" fill="none" xmlns="http://www.w3.org/2000/svg">
    <g clip-path="url(#clip0_541_1376)">
        <path d="M9.71057 25.1317L8.78951 24.2107C5.82899 21.2502 4.97372 17.1054 6.02636 13.3554C3.06583 12.6975 0.894775 10.0659 0.894775 6.90805C0.894775 3.28963 3.8553 0.329102 7.47372 0.329102C10.7632 0.329102 13.4606 2.69752 13.9869 5.85542C17.5395 5.00016 21.4211 5.987 24.1842 8.75015L24.579 9.14489L19.7106 14.0133L19.3158 13.6186C17.7369 12.0396 15.1711 12.0396 13.5921 13.6186C12.0132 15.1975 12.0132 17.7633 13.5921 19.3423L24.5132 30.2633L19.6448 35.1317L14.5132 30.0002L9.71057 25.1317Z"
              fill="#7AC143"/>
        <path d="M15.1711 19.7366L26.0922 8.81559C28.9869 5.92085 33.1975 4.9998 36.8817 6.05243C37.3422 2.82874 40.1054 0.394531 43.3948 0.394531C47.0132 0.394531 49.9738 3.35506 49.9738 6.97348C49.9738 10.3287 47.4738 13.0919 44.2501 13.4866C45.3027 17.1708 44.3817 21.3156 41.4869 24.2103L41.0922 24.6051L36.3554 19.7366L36.7501 19.3419C38.329 17.763 38.329 15.1972 36.7501 13.6182C35.1711 12.0393 32.6054 12.0393 31.0264 13.6182L20.1054 24.5393L15.1711 19.7366Z"
              fill="#F9A541"/>
        <path d="M37.079 44.2762C33.329 45.3946 29.1184 44.5394 26.1579 41.5788L25.7632 41.1841L30.6316 36.3157L31.0263 36.7104C32.6053 38.2894 35.1711 38.2894 36.75 36.7104C38.329 35.1315 38.329 32.5657 36.75 30.9867L25.829 20.0657L30.6974 15.1973L41.6842 26.1841C44.4474 28.9473 45.4342 32.8946 44.579 36.5131C47.8027 36.9736 50.2369 39.7367 50.2369 43.0262C50.2369 46.6446 47.2763 49.6052 43.6579 49.6052C40.3684 49.5394 37.6711 47.2367 37.079 44.2762Z"
              fill="#F44321"/>
        <path d="M35.1711 30.5921L24.25 41.5131C21.4211 44.3421 17.4737 45.2631 13.9211 44.4078C13.2632 47.3684 10.6316 49.5394 7.47372 49.5394C3.8553 49.5394 0.894775 46.5789 0.894775 42.9605C0.894775 39.8684 3.06583 37.2368 5.96057 36.5789C5.03951 32.8947 5.96056 28.9473 8.78951 26.1184L9.18425 25.7236L14.0527 30.5921L13.6579 30.9868C12.079 32.5657 12.079 35.1315 13.6579 36.7105C15.2369 38.2894 17.8027 38.2894 19.3816 36.7105L30.3027 25.7894L35.1711 30.5921Z"
              fill="#5091CD"/>
    </g>
    <defs>
        <clipPath id="clip0_541_1376">
            <rect width="50" height="50" fill="white" transform="translate(0.5)"/>
        </clipPath>
    </defs>
</svg>
