<svg width="51" height="50" viewBox="0 0 51 50" fill="none" xmlns="http://www.w3.org/2000/svg">
    <path fill-rule="evenodd" clip-rule="evenodd"
          d="M7.9627 28.3621C2.9912 23.4159 2.9912 15.3967 7.9627 10.4506L11.6452 6.78688C12.6998 5.73771 14.4096 5.73771 15.4641 6.78688C16.5186 7.83607 16.5186 9.53712 15.4641 10.5863L11.7816 14.25C8.91921 17.0978 8.91921 21.7149 11.7816 24.5627C14.644 27.4105 19.2847 27.4105 22.1472 24.5627L25.7614 20.9669C30.733 16.0207 38.7933 16.0207 43.7648 20.9669C48.7364 25.9129 48.7364 33.9322 43.7648 38.8783L40.0141 42.6098C38.9597 43.6592 37.2497 43.6592 36.1952 42.6098C35.1408 41.5607 35.1408 39.8598 36.1952 38.8105L39.9459 35.079C42.8083 32.2312 42.8083 27.6141 39.9459 24.7663C37.0835 21.9185 32.4428 21.9185 29.5803 24.7663L25.966 28.3621C20.9945 33.3083 12.9342 33.3083 7.9627 28.3621ZM49.9716 15.5952C48.9988 16.7199 47.294 16.8471 46.1635 15.8794C41.3065 11.7214 28.1944 8.79685 18.4934 21.3806C17.5857 22.5579 15.8905 22.7803 14.7072 21.8773C13.5238 20.9743 13.3002 19.2879 14.2078 18.1104C26.0563 2.74143 42.8135 5.92308 49.6858 11.8064C50.8163 12.7742 50.9442 14.4705 49.9716 15.5952ZM5.08671 33.2458C3.95623 32.278 2.25125 32.4053 1.27851 33.53C0.305771 34.6547 0.433646 36.3509 1.56411 37.3189C8.43658 43.2021 25.1937 46.3839 37.0422 31.0147C37.9499 29.8373 37.7263 28.1509 36.543 27.248C35.3595 26.3449 33.6644 26.5673 32.7569 27.7446C23.0556 40.3284 9.94372 37.4039 5.08671 33.2458Z"
          fill="url(#paint0_linear_541_1293)"/>
    <defs>
        <linearGradient id="paint0_linear_541_1293" x1="51.4129" y1="5.15483" x2="2.6052" y2="42.1448"
                        gradientUnits="userSpaceOnUse">
            <stop stop-color="#3E82E7"/>
            <stop offset="1" stop-color="#42B4EB"/>
        </linearGradient>
    </defs>
</svg>
