<svg width="260" height="30" viewBox="0 0 260 30" fill="none" xmlns="http://www.w3.org/2000/svg">
    <g clip-path="url(#clip0_660_1040)">
        <path d="M158.112 0C168.94 0 175.774 3.41538 177.549 9.78462L172.712 10.8C171.292 6.09231 166.322 3.73846 158.112 3.73846C147.773 3.73846 142.137 7.84615 142.137 14.9538C142.137 22.1538 147.728 26.2154 158.112 26.2154C166.588 26.2154 171.691 23.8154 172.845 18.9692L177.638 19.9385C175.907 26.6308 169.162 30 158.112 30C144.977 30 137.477 24.3692 137.477 15C137.477 5.67692 145.154 0 158.112 0Z"
              fill="#96FF00"/>
        <path d="M185.581 0.461914H218.375V4.06191H190.019V12.8311H215.801V16.4311H190.019V25.8927H218.73V29.5388H185.581V0.461914Z"
              fill="#96FF00"/>
        <path d="M222.546 29.5388L238.211 14.7696L222.901 0.461914H229.07L241.495 12.185L253.92 0.461914H259.778L244.379 14.8158L260 29.5388H253.876L241.096 17.5388L228.493 29.5388H222.546Z"
              fill="#96FF00"/>
        <path d="M0 0.461914H24.9394C32.3502 0.461914 36.2553 4.10807 36.2553 9.92345C36.2553 15.1388 32.7496 18.8311 26.3594 19.2927L37.276 29.5388H27.4245L17.3511 19.8927H7.49957V29.5388H0V0.461914ZM7.49957 6.18499V14.1696H23.6081C26.9807 14.1696 28.6226 12.8311 28.6226 10.2004C28.6226 7.56961 26.9807 6.23115 23.6081 6.23115H7.49957V6.18499Z"
              fill="white"/>
        <path d="M92.0361 0.461914H114.18C125.629 0.461914 131.93 5.72345 131.93 15.0465C131.93 24.3235 125.673 29.5388 114.18 29.5388H92.0361V0.461914ZM124.209 15.0465C124.209 9.41576 121.103 6.50807 114.712 6.50807H99.5357V23.5388H114.712C121.103 23.4927 124.209 20.6311 124.209 15.0465Z"
              fill="white"/>
        <path d="M75.3951 29.5384L43.9324 2.30762V29.5384H51.0326V18.0461L64.301 29.5384H75.3951Z" fill="#96FF00"/>
        <path d="M51.1658 0.461914L82.6285 27.6927V0.461914H75.5283V11.9542L62.2598 0.461914H51.1658Z" fill="#FF7900"/>
    </g>
    <defs>
        <clipPath id="clip0_660_1040">
            <rect width="260" height="30" fill="white"/>
        </clipPath>
    </defs>
</svg>
