<svg width="51" height="50" viewBox="0 0 51 50" fill="none" xmlns="http://www.w3.org/2000/svg">
    <path d="M3.8399 37.3521C4.06499 37.7439 4.39147 38.0679 4.78503 38.29L24.1198 49.4529L24.1205 49.4523C24.51 49.6812 24.9536 49.8018 25.4054 49.8018C25.8572 49.8018 26.3007 49.6812 26.6903 49.4523L46.0257 38.2894C46.4185 38.0666 46.7446 37.7429 46.9704 37.3518C47.1962 36.9607 47.3135 36.5163 47.31 36.0648V13.7388L47.3094 13.7382C47.3128 13.2865 47.1955 12.8421 46.9696 12.4509C46.7437 12.0597 46.4174 11.7359 46.0245 11.513L26.6891 0.350066C26.2999 0.121261 25.8566 0 25.4051 0C24.9536 0 24.5103 0.120644 24.121 0.34945L4.78624 11.513C4.39312 11.7357 4.06666 12.0594 3.84064 12.4507C3.61462 12.8419 3.49727 13.2864 3.50072 13.7382L3.50012 13.7388V36.0648C3.49577 36.5165 3.61353 36.9611 3.8399 37.3521Z"
          fill="#009639"/>
    <path d="M19.2145 33.4006C19.2145 34.0601 18.9525 34.6925 18.4862 35.1588C18.0198 35.6252 17.3874 35.8871 16.7279 35.8871C16.0684 35.8871 15.436 35.6252 14.9696 35.1588C14.5033 34.6925 14.2413 34.0601 14.2413 33.4006L14.2419 33.4012L14.2443 16.332C14.2665 15.9863 14.3577 15.6486 14.5125 15.3387C14.6674 15.0288 14.8827 14.7532 15.1459 14.528C15.4091 14.3027 15.7148 14.1326 16.0449 14.0275C16.3749 13.9224 16.7227 13.8845 17.0677 13.9161C17.7087 13.9079 18.3439 14.0392 18.9292 14.3008C19.5144 14.5625 20.0358 14.9483 20.4571 15.4315L21.2085 16.3308L31.5965 28.7624V16.4014H31.5953C31.5953 16.0749 31.6597 15.7516 31.7846 15.4499C31.9096 15.1482 32.0927 14.8741 32.3236 14.6432C32.5545 14.4123 32.8287 14.2291 33.1303 14.1042C33.432 13.9792 33.7554 13.9149 34.0819 13.9149C34.4084 13.9149 34.7318 13.9792 35.0335 14.1042C35.3351 14.2291 35.6093 14.4123 35.8402 14.6432C36.0711 14.8741 36.2542 15.1482 36.3792 15.4499C36.5041 15.7516 36.5685 16.0749 36.5685 16.4014L36.5654 33.4693C36.5433 33.815 36.4521 34.1528 36.2972 34.4626C36.1423 34.7724 35.9269 35.0481 35.6638 35.2733C35.4006 35.4985 35.0949 35.6687 34.7649 35.7738C34.4348 35.8789 34.0871 35.9168 33.7421 35.8853C33.101 35.8937 32.4658 35.7625 31.8805 35.5008C31.2952 35.2391 30.7739 34.8532 30.3527 34.3698L19.2132 21.039V33.4012L19.2145 33.4006Z"
          fill="white"/>
</svg>
