<svg width="51" height="50" viewBox="0 0 51 50" fill="none" xmlns="http://www.w3.org/2000/svg">
    <g clip-path="url(#clip0_541_1525)">
        <path d="M25.3508 0.00041039C23.3045 0.00991842 21.3504 0.184436 19.6309 0.488692C14.5657 1.38356 13.646 3.25659 13.646 6.71079V11.2727H25.6159V12.7934H13.646H9.15382C5.67505 12.7934 2.62893 14.8843 1.67615 18.862C0.577119 23.4214 0.528371 26.2665 1.67615 31.0272C2.52701 34.5709 4.55898 37.0958 8.03775 37.0958H12.1533V31.6271C12.1533 27.6762 15.5716 24.1913 19.6309 24.1913H31.5869C34.915 24.1913 37.5718 21.451 37.5718 18.1087V6.71079C37.5718 3.46689 34.8352 1.03009 31.5869 0.488692C29.5306 0.146404 27.3971 -0.00909778 25.3508 0.00041039ZM18.8776 3.6695C20.114 3.6695 21.1237 4.69568 21.1237 5.95744C21.1237 7.21473 20.114 8.23144 18.8776 8.23144C17.6368 8.23144 16.6315 7.21473 16.6315 5.95744C16.6315 4.69568 17.6368 3.6695 18.8776 3.6695Z"
              fill="url(#paint0_linear_541_1525)"/>
        <path d="M39.0645 12.7935V18.1087C39.0645 22.2296 35.5708 25.698 31.5868 25.698H19.6309C16.356 25.698 13.646 28.5009 13.646 31.7806V43.1785C13.646 46.4224 16.4668 48.3304 19.6309 49.2611C23.4199 50.3752 27.0534 50.5765 31.5868 49.2611C34.6003 48.3886 37.5718 46.6327 37.5718 43.1785V38.6166H25.6159V37.0959H37.5718H43.5567C47.0355 37.0959 48.3318 34.6694 49.5416 31.0273C50.7913 27.2778 50.7382 23.672 49.5416 18.8621C48.6819 15.399 47.0399 12.7935 43.5567 12.7935H39.0645ZM32.3402 41.6579C33.581 41.6579 34.5863 42.6746 34.5863 43.9319C34.5863 45.1936 33.581 46.2198 32.3402 46.2198C31.1038 46.2198 30.0941 45.1936 30.0941 43.9319C30.0941 42.6746 31.1038 41.6579 32.3402 41.6579Z"
              fill="url(#paint1_linear_541_1525)"/>
    </g>
    <defs>
        <linearGradient id="paint0_linear_541_1525" x1="0.833496" y1="-1.2948e-07" x2="28.4347" y2="23.52"
                        gradientUnits="userSpaceOnUse">
            <stop stop-color="#5A9FD4"/>
            <stop offset="1" stop-color="#306998"/>
        </linearGradient>
        <linearGradient id="paint1_linear_541_1525" x1="32.0525" y1="43.5483" x2="22.1503" y2="29.6723"
                        gradientUnits="userSpaceOnUse">
            <stop stop-color="#FFD43B"/>
            <stop offset="1" stop-color="#FFE873"/>
        </linearGradient>
        <clipPath id="clip0_541_1525">
            <rect width="50" height="50" fill="white" transform="translate(0.833496)"/>
        </clipPath>
    </defs>
</svg>
