<svg width="51" height="50" viewBox="0 0 51 50" fill="none" xmlns="http://www.w3.org/2000/svg">
    <g clip-path="url(#clip0_541_1448)">
        <path d="M25.3787 29.1815C27.6884 29.1815 29.5608 27.3091 29.5608 24.9994C29.5608 22.6898 27.6884 20.8174 25.3787 20.8174C23.069 20.8174 21.1967 22.6898 21.1967 24.9994C21.1967 27.3091 23.069 29.1815 25.3787 29.1815Z"
              fill="#087EA4"/>
        <path fill-rule="evenodd" clip-rule="evenodd"
              d="M5.33069 22.3617C4.31116 23.282 3.87682 24.1752 3.87682 25.0002C3.87682 25.8251 4.31116 26.7183 5.33069 27.6387C6.35012 28.5589 7.87795 29.4307 9.84575 30.1821C13.7749 31.6823 19.2664 32.6299 25.3787 32.6299C31.491 32.6299 36.9825 31.6823 40.9116 30.1821C42.8794 29.4307 44.4073 28.5589 45.4267 27.6387C46.4462 26.7183 46.8806 25.8251 46.8806 25.0002C46.8806 24.1752 46.4462 23.282 45.4267 22.3617C44.4073 21.4414 42.8794 20.5696 40.9116 19.8183C36.9825 18.3181 31.491 17.3705 25.3787 17.3705C19.2664 17.3705 13.7749 18.3181 9.84575 19.8183C7.87795 20.5696 6.35012 21.4414 5.33069 22.3617ZM9.17628 18.0649C13.3689 16.4641 19.0976 15.4937 25.3787 15.4937C31.6598 15.4937 37.3885 16.4641 41.5811 18.0649C43.6742 18.8641 45.4327 19.8386 46.6843 20.9685C47.9359 22.0983 48.7574 23.4591 48.7574 25.0002C48.7574 26.5412 47.9359 27.902 46.6843 29.0318C45.4327 30.1617 43.6742 31.1362 41.5811 31.9354C37.3885 33.5362 31.6598 34.5067 25.3787 34.5067C19.0976 34.5067 13.3689 33.5362 9.17628 31.9354C7.0832 31.1362 5.32472 30.1617 4.07307 29.0318C2.82152 27.902 2 26.5412 2 25.0002C2 23.4591 2.82152 22.0983 4.07307 20.9685C5.32472 19.8386 7.0832 18.8641 9.17628 18.0649Z"
              fill="#087EA4"/>
        <path fill-rule="evenodd" clip-rule="evenodd"
              d="M17.6397 6.31846C16.3329 5.8957 15.3422 5.96615 14.6278 6.37864C13.9133 6.79112 13.357 7.61387 13.0697 8.95698C12.7824 10.3 12.7914 12.059 13.1246 14.1388C13.7899 18.2917 15.715 23.5212 18.7712 28.8146C21.8274 34.1081 25.3937 38.39 28.6575 41.0427C30.2921 42.3712 31.811 43.2584 33.1177 43.6811C34.4245 44.1039 35.4152 44.0334 36.1296 43.621C36.8441 43.2085 37.4004 42.3857 37.6877 41.0426C37.975 39.6996 37.966 37.9406 37.6328 35.8608C36.9675 31.7079 35.0424 26.4784 31.9862 21.185C28.93 15.8915 25.3637 11.6096 22.0999 8.95694C20.4653 7.62844 18.9464 6.74118 17.6397 6.31846ZM23.2836 7.50048C26.7663 10.331 30.471 14.8069 33.6116 20.2465C36.7521 25.6861 38.776 31.1325 39.486 35.5639C39.8404 37.7761 39.8757 39.7863 39.523 41.4352C39.1704 43.0839 38.4026 44.4758 37.068 45.2463C35.7335 46.0169 34.1442 45.9858 32.54 45.4668C30.9356 44.9478 29.2125 43.9122 27.4738 42.4991C23.9911 39.6686 20.2864 35.1926 17.1458 29.7531C14.0053 24.3135 11.9814 18.8671 11.2714 14.4357C10.917 12.2235 10.8817 10.2133 11.2344 8.56442C11.587 6.91565 12.3548 5.52378 13.6894 4.75326C15.0239 3.98273 16.6132 4.01378 18.2174 4.53276C19.8218 5.05177 21.5449 6.0874 23.2836 7.50048Z"
              fill="#087EA4"/>
        <path fill-rule="evenodd" clip-rule="evenodd"
              d="M37.6877 8.9573C37.4004 7.61419 36.844 6.79144 36.1296 6.37895C35.4152 5.96647 34.4245 5.89602 33.1176 6.31878C31.811 6.7415 30.2921 7.62876 28.6575 8.95725C25.3937 11.6099 21.8273 15.8918 18.7712 21.1853C15.715 26.4787 13.7899 31.7082 13.1246 35.8611C12.7913 37.9409 12.7824 39.7 13.0696 41.0429C13.3569 42.386 13.9133 43.2088 14.6277 43.6213C15.3422 44.0338 16.3329 44.1042 17.6397 43.6815C18.9464 43.2587 20.4653 42.3715 22.0998 41.043C25.3637 38.3903 28.93 34.1084 31.9862 28.815C35.0423 23.5215 36.9674 18.292 37.6328 14.1391C37.966 12.0593 37.9749 10.3003 37.6877 8.9573ZM39.486 14.436C38.776 18.8674 36.7521 24.3138 33.6116 29.7534C30.471 35.193 26.7662 39.6689 23.2836 42.4994C21.5449 43.9125 19.8217 44.9481 18.2174 45.4672C16.6132 45.9861 15.0239 46.0172 13.6893 45.2467C12.3547 44.4761 11.587 43.0843 11.2343 41.4355C10.8816 39.7866 10.9169 37.7764 11.2714 35.5642C11.9813 31.1329 14.0052 25.6864 17.1458 20.2469C20.2863 14.8073 23.9911 10.3313 27.4738 7.5008C29.2124 6.08772 30.9356 5.05209 32.54 4.53307C34.1442 4.0141 35.7334 3.98305 37.068 4.75358C38.4026 5.5241 39.1703 6.91597 39.523 8.56474C39.8757 10.2136 39.8404 12.2238 39.486 14.436Z"
              fill="#087EA4"/>
    </g>
    <defs>
        <clipPath id="clip0_541_1448">
            <rect width="50" height="50" fill="white" transform="translate(0.5)"/>
        </clipPath>
    </defs>
</svg>
