<svg width="51" height="50" viewBox="0 0 51 50" fill="none" xmlns="http://www.w3.org/2000/svg">
    <g clip-path="url(#clip0_541_1243)">
        <path fill-rule="evenodd" clip-rule="evenodd"
              d="M21.196 11.8C22.804 10.126 25.0421 9.08938 27.5147 9.08938C30.8114 9.08938 33.6685 10.9209 35.207 13.6498C36.5726 13.0393 38.0518 12.7242 39.5476 12.7249C45.4817 12.7249 50.2985 17.5784 50.2985 23.5674C50.2985 29.5564 45.4817 34.4099 39.5476 34.4099C38.8224 34.4099 38.1154 34.337 37.4231 34.1993C36.0769 36.5985 33.5037 38.2286 30.5733 38.2286C29.3802 38.2309 28.2024 37.9603 27.13 37.4374C25.7656 40.6425 22.5879 42.8952 18.8883 42.8952C15.0238 42.8952 11.7454 40.4593 10.4817 37.0344C9.91924 37.1531 9.34592 37.2128 8.77107 37.2125C4.174 37.2125 0.456055 33.4396 0.456055 28.8059C0.456055 25.6923 2.13005 22.9817 4.61356 21.5165C4.08668 20.3027 3.81548 18.9935 3.81686 17.6703C3.81686 12.3223 8.15752 8 13.5055 8C16.6374 8 19.4396 9.49267 21.1978 11.8095"
              fill="#00A1E0"/>
        <path fill-rule="evenodd" clip-rule="evenodd"
              d="M7.71616 26.0858C7.68484 26.1675 7.72733 26.1846 7.73741 26.199C7.831 26.2668 7.92605 26.3159 8.02129 26.371C8.53045 26.6402 9.0103 26.719 9.51213 26.719C10.5341 26.719 11.1696 26.175 11.1696 25.2996V25.2824C11.1696 24.4728 10.4517 24.178 9.78136 23.9673L9.69363 23.9389C9.18631 23.7745 8.74858 23.6313 8.74858 23.2979V23.2809C8.74858 22.9952 9.00499 22.7846 9.40059 22.7846C9.84015 22.7846 10.364 22.9309 10.6991 23.1161C10.6991 23.1161 10.7984 23.1802 10.8345 23.0844C10.8541 23.0325 11.025 22.5752 11.0433 22.5239C11.0627 22.4703 11.0286 22.4298 10.9936 22.4089C10.609 22.1745 10.0779 22.0151 9.52843 22.0151L9.42642 22.0155C8.49052 22.0155 7.83667 22.5814 7.83667 23.391V23.4084C7.83667 24.2618 8.55829 24.5402 9.23228 24.7325L9.3407 24.7662C9.83155 24.9172 10.2565 25.0483 10.2565 25.3926V25.4098C10.2565 25.7267 9.9799 25.9629 9.53667 25.9629C9.36433 25.9629 8.81506 25.96 8.21982 25.5838C8.14785 25.5419 8.10682 25.5117 8.05133 25.4778C8.02202 25.46 7.94876 25.428 7.91689 25.5239L7.71543 26.0844M22.6788 26.0844C22.6475 26.1661 22.69 26.1831 22.7004 26.1976C22.7936 26.2653 22.8891 26.3144 22.9843 26.3695C23.4935 26.6388 23.9733 26.7175 24.4751 26.7175C25.4971 26.7175 26.1326 26.1736 26.1326 25.2981V25.2809C26.1326 24.4714 25.4165 24.1765 24.7444 23.9659L24.6566 23.9375C24.1493 23.773 23.7116 23.6298 23.7116 23.2965V23.2794C23.7116 22.9937 23.968 22.7831 24.3636 22.7831C24.8032 22.7831 25.3251 22.9294 25.6621 23.1146C25.6621 23.1146 25.7614 23.1787 25.7977 23.0829C25.8171 23.0311 25.9881 22.5737 26.0046 22.5225C26.0242 22.4688 25.99 22.4283 25.9552 22.4074C25.5706 22.173 25.0394 22.0137 24.49 22.0137L24.3878 22.014C23.4519 22.014 22.798 22.58 22.798 23.3895V23.4069C22.798 24.2604 23.5196 24.5388 24.1936 24.7311L24.3019 24.7648C24.7945 24.9157 25.2176 25.0468 25.2176 25.3911V25.4084C25.2176 25.7252 24.9411 25.9615 24.4978 25.9615C24.3251 25.9615 23.7744 25.9585 23.181 25.5824C23.109 25.5404 23.0669 25.5115 23.0123 25.4763C22.9938 25.4646 22.9076 25.4309 22.8781 25.5225L22.6766 26.0829M32.8964 24.3686C32.8964 24.8631 32.8041 25.2532 32.6235 25.5298C32.4433 25.8027 32.1711 25.9364 31.792 25.9364C31.4129 25.9364 31.1418 25.8038 30.9641 25.5316C30.7852 25.2569 30.6949 24.865 30.6949 24.3704C30.6949 23.8759 30.7858 23.4877 30.9641 23.2148C31.1414 22.9437 31.411 22.8137 31.792 22.8137C32.1729 22.8137 32.444 22.945 32.6235 23.2148C32.8052 23.4877 32.8964 23.8759 32.8964 24.3704M33.7499 23.4529C33.6658 23.169 33.5356 22.9199 33.3616 22.7111C33.1874 22.5023 32.9678 22.3338 32.7059 22.2129C32.4458 22.0911 32.1381 22.0298 31.7902 22.0298C31.4422 22.0298 31.1363 22.0915 30.8744 22.2129C30.6143 22.3346 30.3927 22.5023 30.2187 22.7111C30.0451 22.9199 29.9147 23.169 29.8304 23.4529C29.7471 23.7349 29.7048 24.0426 29.7048 24.3704C29.7048 24.6983 29.7471 25.006 29.8304 25.288C29.9141 25.5719 30.0447 25.821 30.2187 26.0298C30.3929 26.2386 30.6143 26.4052 30.8744 26.5243C31.1363 26.643 31.444 26.7034 31.7902 26.7034C32.1363 26.7034 32.444 26.643 32.7041 26.5243C32.9641 26.4056 33.1858 26.2386 33.3598 26.0298C33.5336 25.821 33.6638 25.5719 33.748 25.288C33.8312 25.006 33.8735 24.6983 33.8735 24.3704C33.8735 24.0444 33.8312 23.7349 33.748 23.4529M40.7627 25.7972C40.7347 25.7142 40.6537 25.7455 40.6537 25.7455C40.5297 25.793 40.3973 25.8369 40.2563 25.8589C40.1141 25.8813 39.9559 25.8924 39.7892 25.8924C39.3772 25.8924 39.0475 25.7695 38.813 25.5261C38.5768 25.2825 38.4449 24.8906 38.4467 24.3595C38.448 23.8759 38.5649 23.5133 38.7746 23.2349C38.9815 22.9602 39.3002 22.8173 39.7215 22.8173C40.0731 22.8173 40.3424 22.8582 40.6244 22.9465C40.6244 22.9465 40.6913 22.9756 40.7233 22.8875C40.7982 22.6805 40.8535 22.5322 40.9339 22.3051C40.9566 22.24 40.901 22.2126 40.8806 22.2047C40.77 22.1615 40.5088 22.0906 40.311 22.0607C40.1261 22.0325 39.9118 22.0179 39.67 22.0179C39.311 22.0179 38.9924 22.0792 38.7195 22.2009C38.4466 22.3223 38.2158 22.4902 38.0326 22.699C37.8495 22.9078 37.7103 23.1569 37.6169 23.4408C37.5244 23.7228 37.4777 24.0324 37.4777 24.3602C37.4777 25.0672 37.6682 25.6404 38.0455 26.0598C38.4228 26.4811 38.9905 26.6935 39.7304 26.6935C40.1682 26.6935 40.6169 26.6051 40.9392 26.4774C40.9392 26.4774 41.0008 26.4477 40.974 26.3759L40.7634 25.7972M42.2561 23.8924C42.2969 23.6177 42.3722 23.3888 42.4905 23.2111C42.6676 22.94 42.9374 22.7917 43.3165 22.7917C43.6956 22.7917 43.9466 22.9408 44.1261 23.2111C44.2451 23.3897 44.2971 23.6269 44.3165 23.8924L42.2469 23.8921L42.2561 23.8924ZM45.1315 23.288C45.0588 23.0151 44.8788 22.7386 44.7616 22.6122C44.5748 22.4126 44.3935 22.2715 44.2121 22.1946C43.9504 22.0833 43.6687 22.0262 43.3843 22.0267C43.0235 22.0267 42.6957 22.0877 42.4301 22.2117C42.1645 22.3366 41.9411 22.5065 41.7652 22.719C41.5896 22.9314 41.4576 23.1824 41.3733 23.4699C41.2891 23.7538 41.2466 24.0651 41.2466 24.3911C41.2466 24.7245 41.2907 25.034 41.3775 25.3142C41.4652 25.5963 41.6065 25.8435 41.7969 26.0487C41.9874 26.2556 42.231 26.4168 42.524 26.5303C42.8152 26.643 43.1687 26.7014 43.5735 26.7001C44.4087 26.6974 44.8482 26.5115 45.0277 26.4107C45.0598 26.3928 45.09 26.3618 45.0522 26.2726L44.8636 25.7433C44.8347 25.6644 44.7548 25.693 44.7548 25.693C44.5478 25.7703 44.2548 25.9091 43.568 25.9073C43.1193 25.9065 42.7878 25.7741 42.579 25.5666C42.3665 25.3541 42.2603 25.0446 42.2438 24.6051L45.1376 24.6073C45.1376 24.6073 45.2138 24.6065 45.2217 24.5322C45.2248 24.5014 45.3207 23.9388 45.1354 23.2886L45.1315 23.288ZM19.1242 23.8924C19.1651 23.6177 19.2405 23.3888 19.3587 23.2111C19.5359 22.94 19.8055 22.7917 20.1847 22.7917C20.5638 22.7917 20.8147 22.9408 20.9942 23.2111C21.113 23.3897 21.1651 23.6269 21.1847 23.8924L19.1151 23.8921L19.1242 23.8924ZM21.9997 23.288C21.9271 23.0151 21.7469 22.7386 21.6297 22.6122C21.4429 22.4126 21.2616 22.2715 21.0803 22.1946C20.8185 22.0833 20.5369 22.0262 20.2524 22.0267C19.8916 22.0267 19.5638 22.0877 19.2982 22.2117C19.0326 22.3366 18.8092 22.5065 18.6334 22.719C18.4581 22.9314 18.3257 23.1824 18.2414 23.4699C18.1574 23.7538 18.1151 24.0651 18.1151 24.3911C18.1151 24.7245 18.1588 25.034 18.2462 25.3142C18.3337 25.5963 18.4751 25.8435 18.6638 26.0487C18.8543 26.2556 19.0978 26.4168 19.3909 26.5303C19.6821 26.643 20.0337 26.7014 20.4403 26.7001C21.2755 26.6974 21.7151 26.5115 21.8945 26.4107C21.9264 26.3928 21.9568 26.3618 21.9189 26.2726L21.7303 25.7433C21.7011 25.6644 21.6213 25.693 21.6213 25.693C21.4143 25.7703 21.1213 25.9091 20.4345 25.9073C19.9876 25.9065 19.6543 25.7741 19.4455 25.5666C19.233 25.3541 19.1268 25.0446 19.1103 24.6051L22.0041 24.6073C22.0041 24.6073 22.0803 24.6065 22.0881 24.5322C22.0913 24.5014 22.1872 23.9388 22.0017 23.2886L21.9997 23.288ZM12.8788 25.7789C12.7654 25.6884 12.7497 25.6662 12.7121 25.6074C12.6548 25.519 12.6255 25.3932 12.6255 25.232C12.6255 24.9792 12.7098 24.7961 12.8837 24.6734C12.8819 24.6737 13.1328 24.4573 13.7226 24.4646C13.9851 24.4693 14.247 24.4916 14.5065 24.5314V25.8446H14.5068C14.5068 25.8446 14.1405 25.9236 13.7266 25.9485C13.1387 25.9838 12.8786 25.7792 12.8804 25.7798L12.8788 25.7789ZM14.029 23.7459C13.9118 23.7373 13.7598 23.7331 13.5784 23.7331C13.3312 23.7331 13.0913 23.7639 12.8678 23.8243C12.6425 23.8851 12.4392 23.9792 12.2652 24.1045C12.0908 24.229 11.9473 24.3919 11.8458 24.5807C11.7435 24.7712 11.6913 24.9946 11.6913 25.2474C11.6913 25.5038 11.7358 25.7254 11.8237 25.9067C11.9098 26.0866 12.0395 26.2421 12.201 26.3591C12.3616 26.4759 12.5599 26.5624 12.7889 26.6137C13.016 26.6655 13.2724 26.6917 13.5544 26.6917C13.8511 26.6917 14.146 26.6668 14.4317 26.6186C14.6751 26.5766 14.9175 26.5295 15.1588 26.4772C15.2552 26.4551 15.3621 26.4259 15.3621 26.4259C15.4336 26.4078 15.4281 26.3314 15.4281 26.3314L15.4264 23.6941C15.4264 23.1153 15.2718 22.6849 14.9667 22.4193C14.6627 22.1538 14.2176 22.0201 13.6407 22.0201C13.4246 22.0201 13.0748 22.0494 12.866 22.0913C12.866 22.0913 12.2359 22.2137 11.9759 22.4173C11.9759 22.4173 11.9187 22.4525 11.9499 22.5322L12.155 23.0816C12.1804 23.1529 12.2499 23.1285 12.2499 23.1285C12.2499 23.1285 12.2717 23.1199 12.2973 23.1047C12.8522 22.8025 13.5555 22.8117 13.5555 22.8117C13.8669 22.8117 14.1087 22.8748 14.2698 22.9985C14.4275 23.1195 14.5079 23.3025 14.5079 23.6871V23.8093C14.2607 23.7734 14.0317 23.7527 14.0317 23.7527L14.029 23.7459ZM37.2891 22.2569C37.2932 22.2472 37.2954 22.2368 37.2955 22.2263C37.2955 22.2158 37.2935 22.2054 37.2894 22.1957C37.2854 22.186 37.2794 22.1772 37.2719 22.1698C37.2644 22.1625 37.2554 22.1567 37.2456 22.1529C37.1964 22.1342 36.9508 22.0824 36.7621 22.0706C36.3995 22.0479 36.198 22.1091 36.0167 22.1904C35.8376 22.2712 35.6394 22.401 35.5295 22.5512L35.5292 22.1996C35.5292 22.1512 35.4949 22.1122 35.4462 22.1122H34.7063C34.6583 22.1122 34.6235 22.1512 34.6235 22.1996V26.5036C34.6235 26.5269 34.6328 26.5491 34.6492 26.5656C34.6657 26.582 34.688 26.5913 34.7112 26.5913H35.4695C35.4927 26.5913 35.515 26.582 35.5314 26.5656C35.5478 26.5491 35.557 26.5268 35.557 26.5036V24.3424C35.557 24.053 35.5889 23.7655 35.6524 23.5842C35.7151 23.4049 35.8002 23.2618 35.9052 23.1593C36.0053 23.0602 36.1278 22.9867 36.2623 22.945C36.3886 22.9088 36.5193 22.8904 36.6506 22.8904C36.8017 22.8904 36.9674 22.9292 36.9674 22.9292C37.0231 22.9355 37.0541 22.9014 37.0729 22.8512C37.1226 22.7192 37.2634 22.3237 37.2909 22.245"
              fill="#FFFFFE"/>
        <path fill-rule="evenodd" clip-rule="evenodd"
              d="M30.2071 20.2702C30.1134 20.2418 30.018 20.2192 29.9216 20.2024C29.7918 20.1808 29.6604 20.1706 29.5289 20.172C29.0064 20.172 28.5945 20.3196 28.3053 20.6112C28.0181 20.9006 27.8227 21.3414 27.7247 21.9215L27.6893 22.1172H27.0335C27.0335 22.1172 26.9535 22.1139 26.9366 22.2013L26.8289 22.802C26.8214 22.8596 26.8461 22.8954 26.923 22.8951H27.5615L26.9137 26.511C26.863 26.8022 26.8049 27.0418 26.7406 27.2233C26.6773 27.4024 26.6154 27.5367 26.5392 27.6341C26.4654 27.7284 26.3954 27.7978 26.2747 27.8383C26.1751 27.8718 26.0604 27.8872 25.9348 27.8872C25.8648 27.8872 25.7718 27.8755 25.7031 27.8618C25.6344 27.8482 25.5987 27.8328 25.5472 27.8112C25.5472 27.8112 25.4723 27.7826 25.4428 27.8577C25.4188 27.9191 25.2487 28.387 25.2285 28.4449C25.208 28.502 25.2368 28.5471 25.273 28.5601C25.358 28.5905 25.4212 28.6099 25.537 28.6372C25.6978 28.6751 25.8333 28.6775 25.9602 28.6775C26.2262 28.6775 26.4685 28.6401 26.6694 28.5676C26.8716 28.4945 27.0476 28.3672 27.2033 28.1949C27.3716 28.009 27.4774 27.8143 27.5787 27.5487C27.6789 27.2856 27.7643 26.9588 27.8326 26.5781L28.4835 22.8951H29.4351C29.4351 22.8951 29.5154 22.898 29.532 22.811L29.6397 22.2103C29.6472 22.1528 29.6227 22.1169 29.5454 22.1172H28.6218C28.6263 22.0964 28.6683 21.7715 28.7743 21.4656C28.8196 21.335 28.9047 21.2297 28.9769 21.1574C29.0443 21.0885 29.1273 21.0368 29.2188 21.0068C29.3192 20.9758 29.4238 20.9607 29.5289 20.9621C29.6159 20.9621 29.7013 20.9726 29.7663 20.9861C29.8558 21.0052 29.8906 21.0152 29.9141 21.0222C30.0082 21.0509 30.0209 21.0231 30.0393 20.9775L30.2602 20.3709C30.2829 20.3057 30.2276 20.2782 30.2071 20.2702ZM17.2998 26.5187C17.2998 26.5671 17.2654 26.6064 17.217 26.6064H16.4509C16.4024 26.6064 16.3679 26.5671 16.3679 26.5187V20.3524C16.3679 20.3042 16.4024 20.2652 16.4509 20.2652H17.217C17.2654 20.2652 17.2998 20.3042 17.2998 20.3524V26.5187Z"
              fill="#FFFFFE"/>
    </g>
    <defs>
        <clipPath id="clip0_541_1243">
            <rect width="50" height="50" fill="white" transform="translate(0.5)"/>
        </clipPath>
    </defs>
</svg>
