<svg width="50" height="50" viewBox="0 0 50 50" fill="none" xmlns="http://www.w3.org/2000/svg">
    <path d="M37.5781 34.4531H43.7891V19.5508L36.7969 12.5586L32.4023 16.9531L37.5781 22.1289V34.4531ZM43.8086 37.5781H34.7656H22.1484L16.9922 32.4023L19.1797 30.2148L23.457 34.4922H32.2461L23.5742 25.8203L25.7812 23.6133L34.4531 32.2852V23.4961L30.1953 19.2383L32.3828 17.0508L21.6211 6.25H11.0156H0L6.19141 12.4414V12.4609H6.23047H19.043L23.5742 16.9922L16.9336 23.6328L12.4023 19.1016V15.5859H6.19141V21.6797L16.9336 32.4219L12.5586 36.7969L19.5508 43.7891H30.1562H50L43.8086 37.5781Z"
          fill="#231F20"/>
</svg>
