<svg width="50" height="50" viewBox="0 0 50 50" fill="none" xmlns="http://www.w3.org/2000/svg">
    <g clip-path="url(#clip0_546_2393)">
        <path d="M4.64043 10H45.3397C47.9152 10 50.0004 12.085 50.0004 14.6607V30.1963C50.0004 32.7719 47.9154 34.857 45.3397 34.857H30.7445L32.7479 39.7629L23.9375 34.857H4.66114C2.08555 34.857 0.000393166 32.7721 0.000393166 30.1963V14.6607C-0.0200482 12.1055 2.06485 10 4.64043 10Z"
              fill="#7F54B3"/>
        <path d="M2.84725 14.2483C3.1318 13.8622 3.55863 13.6589 4.12773 13.6182C5.16432 13.5369 5.75375 14.0248 5.89603 15.0817C6.52611 19.3297 7.21717 22.9272 7.94896 25.8744L12.4001 17.3989C12.8066 16.6265 13.3148 16.22 13.9245 16.1793C14.8188 16.1184 15.3676 16.6875 15.5912 17.8867C16.0993 20.59 16.7497 22.8867 17.5221 24.8378C18.0505 19.6751 18.9449 15.9558 20.2051 13.6589C20.51 13.0898 20.9571 12.8053 21.5466 12.7646C22.014 12.724 22.4409 12.8662 22.8271 13.1711C23.2132 13.476 23.4165 13.8622 23.4571 14.3297C23.4775 14.6955 23.4165 15.0004 23.2539 15.3053C22.4612 16.7687 21.8108 19.2281 21.2824 22.6426C20.7743 25.9557 20.5913 28.5369 20.7133 30.3865C20.7539 30.8946 20.6726 31.3418 20.4694 31.728C20.2255 32.1751 19.8596 32.419 19.3921 32.4597C18.8637 32.5003 18.3149 32.2564 17.7865 31.7076C15.8962 29.7767 14.3921 26.8907 13.2947 23.049C11.9735 25.6506 10.998 27.602 10.3679 28.9028C9.16873 31.1994 8.15248 32.3783 7.29877 32.4393C6.74998 32.4799 6.2825 32.0124 5.87599 31.0368C4.83941 28.3741 3.7215 23.232 2.52228 15.6101C2.44098 15.0816 2.56293 14.6141 2.84748 14.2483L2.84725 14.2483ZM46.5269 17.4393C45.7952 16.1589 44.718 15.3864 43.275 15.0815C42.8888 15.0002 42.5229 14.9596 42.1774 14.9596C40.2262 14.9596 38.6409 15.9758 37.4011 18.0084C36.3441 19.736 35.8157 21.6467 35.8157 23.74C35.8157 25.3051 36.1409 26.6465 36.7913 27.7645C37.523 29.0449 38.6002 29.8174 40.0432 30.1223C40.4294 30.2036 40.7953 30.2442 41.1408 30.2442C43.1123 30.2442 44.6976 29.228 45.9172 27.1954C46.9741 25.4474 47.5025 23.5368 47.5025 21.4434C47.5229 19.8581 47.1773 18.537 46.5269 17.4393ZM43.966 23.0694C43.6814 24.4109 43.1733 25.4067 42.4213 26.0776C41.8319 26.6061 41.2831 26.8297 40.7749 26.728C40.2871 26.6264 39.8806 26.1996 39.5758 25.4069C39.3319 24.7768 39.2099 24.1467 39.2099 23.5573C39.2099 23.0492 39.2506 22.541 39.3522 22.0736C39.5351 21.2402 39.8806 20.4272 40.4294 19.6548C41.1001 18.6589 41.8115 18.2524 42.5433 18.3947C43.0311 18.4963 43.4376 18.9231 43.7425 19.7158C43.9864 20.3459 44.1083 20.976 44.1083 21.5654C44.1083 22.0939 44.0676 22.6019 43.966 23.0694ZM33.8033 17.4393C33.0716 16.1589 31.974 15.3864 30.5513 15.0815C30.1652 15.0002 29.7993 14.9596 29.4538 14.9596C27.5026 14.9596 25.9173 15.9758 24.6774 18.0084C23.6205 19.736 23.092 21.6467 23.092 23.74C23.092 25.3051 23.4172 26.6465 24.0677 27.7645C24.7994 29.0449 25.8766 29.8174 27.3196 30.1223C27.7058 30.2036 28.0716 30.2442 28.4172 30.2442C30.3887 30.2442 31.974 29.228 33.1935 27.1954C34.2505 25.4474 34.7789 23.5368 34.7789 21.4434C34.7789 19.8581 34.4537 18.537 33.8033 17.4393ZM31.2221 23.0694C30.9375 24.4109 30.4294 25.4067 29.6773 26.0776C29.0879 26.6061 28.5391 26.8297 28.031 26.728C27.5432 26.6264 27.1367 26.1996 26.8318 25.4069C26.5879 24.7768 26.466 24.1467 26.466 23.5573C26.466 23.0492 26.5066 22.541 26.6082 22.0736C26.7912 21.2402 27.1367 20.4272 27.6855 19.6548C28.3562 18.6589 29.0676 18.2524 29.7993 18.3947C30.2871 18.4963 30.6936 18.9231 30.9985 19.7158C31.2424 20.3459 31.3644 20.976 31.3644 21.5654C31.3847 22.0939 31.3237 22.6019 31.2221 23.0694Z"
              fill="white"/>
    </g>
    <defs>
        <clipPath id="clip0_546_2393">
            <rect width="50" height="50" fill="white"/>
        </clipPath>
    </defs>
</svg>
