<svg width="51" height="50" viewBox="0 0 51 50" fill="none" xmlns="http://www.w3.org/2000/svg">
    <g clip-path="url(#clip0_541_1358)">
        <path d="M4.05444 24.9992C4.05444 33.4882 8.9878 40.8243 16.1416 44.3008L5.91124 16.271C4.72126 18.9383 4.05444 21.8899 4.05444 24.9992Z"
              fill="#21759B"/>
        <path d="M39.979 23.9172C39.979 21.2667 39.0269 19.4311 38.2103 18.0024C37.1232 16.2358 36.1042 14.7398 36.1042 12.9732C36.1042 11.0017 37.5994 9.16653 39.7056 9.16653C39.8006 9.16653 39.8908 9.17837 39.9835 9.18367C36.1679 5.688 31.0843 3.55371 25.5009 3.55371C18.0084 3.55371 11.4166 7.39789 7.58179 13.2205C8.08496 13.2356 8.55915 13.2462 8.96194 13.2462C11.2052 13.2462 14.6776 12.974 14.6776 12.974C15.8337 12.9058 15.97 14.6039 14.8151 14.7406C14.8151 14.7406 13.6533 14.8773 12.3605 14.945L20.1704 38.1754L24.8638 24.0992L21.5224 14.9442C20.3676 14.8765 19.2735 14.7398 19.2735 14.7398C18.1178 14.672 18.2533 12.905 19.409 12.9732C19.409 12.9732 22.9507 13.2454 25.0581 13.2454C27.3009 13.2454 30.7738 12.9732 30.7738 12.9732C31.9307 12.905 32.0666 14.6031 30.9113 14.7398C30.9113 14.7398 29.747 14.8765 28.4566 14.9442L36.207 37.9987L38.3462 30.8502C39.2734 27.8838 39.979 25.7532 39.979 23.9172Z"
              fill="#21759B"/>
        <path d="M25.8771 26.8755L19.4424 45.5736C21.3637 46.1384 23.3955 46.4473 25.5008 46.4473C27.9983 46.4473 30.3934 46.0156 32.6228 45.2316C32.5652 45.1398 32.513 45.0423 32.4701 44.9362L25.8771 26.8755Z"
              fill="#21759B"/>
        <path d="M44.3195 14.71C44.4117 15.3931 44.464 16.1264 44.464 16.9153C44.464 19.0916 44.0575 21.5381 42.8332 24.5971L36.2822 43.5376C42.6582 39.8195 46.9468 32.9118 46.9468 24.9999C46.9472 21.2712 45.9947 17.7649 44.3195 14.71Z"
              fill="#21759B"/>
        <path d="M25.5009 0C11.7162 0 0.500732 11.2146 0.500732 24.9994C0.500732 38.7858 11.7162 50 25.5009 50C39.2853 50 50.5024 38.7858 50.5024 24.9994C50.502 11.2146 39.2853 0 25.5009 0ZM25.5009 48.8541C12.3483 48.8541 1.64705 38.1528 1.64705 24.9994C1.64705 11.8468 12.3479 1.14632 25.5009 1.14632C38.6532 1.14632 49.3536 11.8468 49.3536 24.9994C49.3536 38.1528 38.6532 48.8541 25.5009 48.8541Z"
              fill="#21759B"/>
    </g>
    <defs>
        <clipPath id="clip0_541_1358">
            <rect width="49.9988" height="50" fill="white" transform="translate(0.500732)"/>
        </clipPath>
    </defs>
</svg>
