<svg width="51" height="50" viewBox="0 0 51 50" fill="none" xmlns="http://www.w3.org/2000/svg">
    <g clip-path="url(#clip0_541_1253)">
        <path d="M22.8682 33.8403C22.4922 33.8403 22.1114 33.7621 21.7452 33.601L13.9327 30.1196C12.5362 29.4994 11.9063 27.8539 12.5264 26.4574L16.0079 18.6449C16.628 17.2485 18.2735 16.6186 19.67 17.2387L27.4825 20.7201C28.879 21.3403 29.5088 22.9858 28.8887 24.3822L25.4073 32.1947C24.9434 33.2299 23.9278 33.8403 22.8682 33.8403ZM22.3946 32.1362C22.9854 32.3998 23.6788 32.1313 23.9424 31.5453L27.4239 23.7328C27.6875 23.142 27.419 22.4487 26.8331 22.185L19.0157 18.7035C18.4249 18.4399 17.7315 18.7084 17.4678 19.2944L13.9864 27.1069C13.7227 27.6977 13.9913 28.391 14.5772 28.6547L22.3946 32.1362Z"
              fill="#089949"/>
        <path d="M47.375 33.8457H38.8203C37.292 33.8457 36.0469 32.6006 36.0469 31.0723V22.5176C36.0469 20.9893 37.292 19.7441 38.8203 19.7441H47.375C48.9033 19.7441 50.1484 20.9893 50.1484 22.5176V31.0723C50.1484 32.6006 48.9033 33.8457 47.375 33.8457ZM38.8203 21.3457C38.1758 21.3457 37.6484 21.873 37.6484 22.5176V31.0723C37.6484 31.7168 38.1758 32.2441 38.8203 32.2441H47.375C48.0195 32.2441 48.5469 31.7168 48.5469 31.0723V22.5176C48.5469 21.873 48.0195 21.3457 47.375 21.3457H38.8203Z"
              fill="#F9B21D"/>
        <path d="M15.3389 24.0837L14.1866 26.6618C14.1719 26.6911 14.1573 26.7155 14.1427 26.7399L14.5919 29.5133C14.6944 30.153 14.2598 30.7536 13.6251 30.8561L5.17781 32.2233C4.87019 32.2721 4.55769 32.1989 4.30378 32.0182C4.04988 31.8376 3.88386 31.5641 3.83503 31.2565L2.46784 22.8092C2.41902 22.5016 2.49226 22.1891 2.67292 21.9352C2.85359 21.6813 3.12702 21.5153 3.43464 21.4665L11.8819 20.0993C11.9454 20.0895 12.0089 20.0846 12.0675 20.0846C12.629 20.0846 13.1319 20.4948 13.2247 21.071L13.6788 23.8639L14.8702 21.193L14.8067 20.8171C14.5626 19.3083 13.1368 18.278 11.628 18.5221L3.18074 19.8893C2.4532 20.0016 1.80867 20.3971 1.37898 20.9977C0.944408 21.5983 0.773509 22.3307 0.890697 23.0632L2.25788 31.5104C2.37507 32.2428 2.77058 32.8825 3.37117 33.3171C3.8448 33.6637 4.40632 33.8395 4.98738 33.8395C5.13386 33.8395 5.28523 33.8298 5.43659 33.8053L13.8839 32.4382C15.3927 32.194 16.4229 30.7682 16.1788 29.2594L15.3389 24.0837Z"
              fill="#E42527"/>
        <path d="M25.4708 28.1177L26.711 25.3394L26.3594 22.7564C26.3155 22.4488 26.3985 22.1412 26.5889 21.8922C26.7794 21.6431 27.0528 21.482 27.3653 21.4429L35.8419 20.2906C35.8956 20.2857 35.9493 20.2808 36.003 20.2808C36.2569 20.2808 36.501 20.3638 36.711 20.5201C36.7501 20.5494 36.7842 20.5836 36.8184 20.6129C37.1944 20.2174 37.6876 19.9342 38.2393 19.8121C38.0831 19.5972 37.8975 19.4068 37.6778 19.2408C37.087 18.7916 36.3594 18.6011 35.627 18.6988L27.1407 19.8511C26.4083 19.9488 25.754 20.3297 25.3096 20.9205C24.8604 21.5113 24.67 22.2388 24.7676 22.9713L25.4708 28.1177Z"
              fill="#226DB4"/>
        <path d="M39.8945 29.5488L38.7812 21.3457C38.1562 21.3652 37.6533 21.8828 37.6533 22.5127V24.9199L38.3125 29.7637C38.3564 30.0713 38.2734 30.3789 38.083 30.6279C37.8926 30.877 37.6191 31.0381 37.3066 31.0771L28.8301 32.2295C28.5225 32.2734 28.2148 32.1904 27.9658 32C27.7168 31.8096 27.5557 31.5361 27.5166 31.2236L27.126 28.3477L25.8857 31.126L25.9297 31.4385C26.0273 32.1709 26.4082 32.8252 26.999 33.2695C27.4873 33.6406 28.0684 33.8359 28.6738 33.8359C28.8008 33.8359 28.9277 33.8262 29.0547 33.8115L37.5215 32.6689C38.2539 32.5713 38.9082 32.1904 39.3525 31.5996C39.8018 31.0088 39.9922 30.2812 39.8945 29.5488Z"
              fill="#226DB4"/>
    </g>
    <defs>
        <clipPath id="clip0_541_1253">
            <rect width="50" height="50" fill="white" transform="translate(0.5)"/>
        </clipPath>
    </defs>
</svg>
