<svg width="51" height="50" viewBox="0 0 51 50" fill="none" xmlns="http://www.w3.org/2000/svg">
    <path fill-rule="evenodd" clip-rule="evenodd"
          d="M42.1261 29.3827C42.1587 30.1277 41.9161 30.8587 41.4445 31.4363C40.9729 32.014 40.3053 32.3979 39.5688 32.515C36.627 33.0229 30.4929 33.3439 25.3395 33.3439C20.1861 33.3439 14.052 33.03 11.1067 32.515C9.42064 32.2222 8.54938 30.8748 8.54938 29.3827V19.619C8.55809 18.8842 8.81573 18.1739 9.28022 17.6044C9.7447 17.0348 10.3886 16.6396 11.1067 16.4832C12.5856 16.2835 14.0765 16.1856 15.5688 16.1905C15.8622 16.1979 16.1409 16.3211 16.3438 16.5333C16.5467 16.7454 16.6574 17.0292 16.6517 17.3228V24.2046C19.6781 24.2046 22.2954 24.0247 25.3466 24.0247C28.3977 24.0247 30.9903 24.2046 34.0309 24.2046V17.3792C34.0095 17.0864 34.1052 16.7971 34.297 16.5749C34.4888 16.3527 34.761 16.2157 35.0538 16.194H35.1102C36.6025 16.1909 38.0933 16.2887 39.5723 16.4868C40.2892 16.6437 40.9318 17.0387 41.3956 17.6075C41.8593 18.1762 42.1168 18.8853 42.1261 19.619V29.3827ZM25.3395 0C11.6217 0 0.5 11.1958 0.5 25.0018C0.5 38.8078 11.6217 50 25.3395 50C39.0573 50 50.1755 38.8078 50.1755 25.0018C50.1755 11.1958 39.0538 0 25.3395 0Z"
          fill="#EA2328"/>
</svg>
