<svg width="51" height="50" viewBox="0 0 51 50" fill="none" xmlns="http://www.w3.org/2000/svg">
    <g clip-path="url(#clip0_541_1367)">
        <path d="M27.5926 16.7872C26.7702 15.9649 25.8976 15.0831 25.1232 14.2036C24.3991 15.026 23.6338 15.7752 22.8686 16.5405C22.6835 16.7233 22.5328 16.938 22.4231 17.1733C22.2541 17.5433 22.1992 17.9568 22.2678 18.3589C22.2678 18.4 22.2678 18.4411 22.2678 18.4822C22.3386 18.7038 22.4437 18.9117 22.5807 19.099C22.6036 19.131 22.6218 19.163 22.6378 19.1972C23.1404 19.8231 24.3328 20.9744 24.9999 21.6164L28.9518 25.7328L30.1374 26.9846C31.1151 27.9988 31.9968 29.0999 32.7712 30.2763C32.8649 30.4385 33.0134 30.5573 33.1916 30.6144H33.2738C33.4657 30.5825 33.6233 30.4454 33.685 30.2604C33.9408 29.4334 34.071 28.5745 34.071 27.7087C34.0482 25.7053 33.4131 23.7591 32.2527 22.128C30.8844 20.216 29.331 18.4457 27.6109 16.8443L27.5926 16.7872Z"
              fill="#0678BE"/>
        <path d="M28.6958 30.0411C27.7158 28.8464 26.7701 27.7522 25.2807 26.1646C24.022 27.606 22.8684 28.7162 21.9135 29.8446C20.2322 31.6653 20.3442 34.5025 22.1648 36.1837C23.9854 37.865 26.8226 37.7531 28.5039 35.9325C29.9316 34.3882 30.0938 32.0582 28.8945 30.3289C28.8351 30.2261 28.7689 30.1302 28.6958 30.0411Z"
              fill="#0678BE"/>
        <path d="M22.8844 24.2123C22.9941 24.0867 22.9941 23.9016 22.8844 23.776L19.9787 20.8041L19.3528 20.2124C18.8502 20.7972 18.3797 21.4094 17.9456 22.049C17.242 23.0633 16.7189 24.1918 16.3991 25.3819C16.0496 26.7525 16.0816 28.1939 16.4973 29.5463L16.5545 29.6696C16.6276 29.8158 16.7098 29.9552 16.8012 30.09C16.8012 30.09 17.1392 30.6336 17.4339 30.6588H17.5413C17.6418 30.6359 17.724 30.5651 17.7629 30.4692C18.037 29.8935 18.3797 29.3567 18.784 28.8633L19.8462 27.5703L22.8844 24.2123Z"
              fill="#0678BE"/>
        <path d="M25.2305 0.406251C11.6317 0.401683 0.605156 11.4214 0.600587 25.0179C0.596019 38.6144 11.6158 49.6433 25.2122 49.6478C38.811 49.6524 49.8376 38.6327 49.8422 25.0362C49.8422 25.0339 49.8422 25.0316 49.8422 25.027C49.8422 11.4328 38.8247 0.41082 25.2305 0.406251ZM25.0889 40.6429C17.9343 40.6246 12.1412 34.8247 12.132 27.6701C12.132 21.5868 16.1913 17.5366 19.7618 13.9571C22.1489 11.5699 24.4287 9.29697 25.1049 6.73849C25.7788 9.29925 28.0608 11.5699 30.448 13.9571C34.0299 17.5389 38.0777 21.5868 38.0777 27.6701C38.0709 34.8361 32.2572 40.6429 25.0889 40.6429Z"
              fill="#0678BE"/>
    </g>
    <defs>
        <clipPath id="clip0_541_1367">
            <rect width="50" height="50" fill="white" transform="translate(0.5)"/>
        </clipPath>
    </defs>
</svg>
