<svg width="50" height="50" viewBox="0 0 50 50" fill="none" xmlns="http://www.w3.org/2000/svg">
    <g clip-path="url(#clip0_541_1306)">
        <path d="M24.8942 0.0261132H43.6659C44.4958 0.0189269 45.3189 0.177101 46.0871 0.491409C46.8553 0.805717 47.5532 1.26986 48.1402 1.85677C48.7271 2.44367 49.1912 3.14158 49.5055 3.90978C49.8198 4.67798 49.978 5.50107 49.9708 6.33105V25.1027C49.9692 31.7076 47.3447 38.0415 42.6743 42.7118C38.0039 47.3822 31.67 50.0067 25.0651 50.0084H24.9235C21.6507 50.012 18.4092 49.3707 15.3843 48.1211C12.3594 46.8715 9.61036 45.0381 7.2943 42.7257C4.9784 40.413 3.14123 37.6664 1.8879 34.643C0.634567 31.6196 -0.0103271 28.3787 -0.00988747 25.1058C-0.00988747 11.3042 11.1219 0.172381 24.8958 0.0307312L24.8942 0.0261132Z"
              fill="#25C16F"/>
        <path d="M24.8943 11.1582C21.8591 11.1582 18.9482 12.3639 16.8019 14.5102C14.6557 16.6564 13.45 19.5673 13.45 22.6026V30.384C13.4727 31.3863 13.881 32.3413 14.5899 33.0502C15.2988 33.7591 16.2537 34.1674 17.256 34.1901H20.4939V25.26H16.1213V22.7611C16.3876 18.0544 20.2815 14.3746 24.9959 14.3746C29.7104 14.3746 33.6181 18.0698 33.8706 22.7611V25.26H29.4409V34.1901H32.3663V34.3317C32.3516 35.2611 31.9759 36.1482 31.3187 36.8054C30.6615 37.4626 29.7744 37.8383 28.8451 37.853H25.35C25.0667 37.853 24.7542 37.9946 24.7542 38.2795C24.7696 38.5874 25.0267 38.8614 25.35 38.8753H28.8713C30.0739 38.8676 31.2251 38.3865 32.0756 37.5361C32.926 36.6856 33.4072 35.5344 33.4148 34.3317V34.0484C34.2498 33.8578 34.9948 33.3881 35.5267 32.7167C36.0586 32.0454 36.3456 31.2128 36.3402 30.3563V22.7457C36.4988 16.2976 31.3871 11.1582 24.8943 11.1582Z"
              fill="white"/>
    </g>
    <defs>
        <clipPath id="clip0_541_1306">
            <rect width="50" height="50" fill="white"/>
        </clipPath>
    </defs>
</svg>
