<svg width="51" height="50" viewBox="0 0 51 50" fill="none" xmlns="http://www.w3.org/2000/svg">
    <g clip-path="url(#clip0_541_1561)">
        <path d="M4.60665 21.6556C4.50928 21.6556 4.48493 21.6069 4.53362 21.5339L5.04482 20.8766C5.0935 20.8036 5.21522 20.7549 5.31259 20.7549H14.0029C14.1003 20.7549 14.1247 20.8279 14.076 20.9009L13.6622 21.5339C13.6135 21.6069 13.4918 21.6799 13.4187 21.6799L4.60665 21.6556Z"
              fill="#00ACD7"/>
        <path d="M0.930867 23.8958C0.833496 23.8958 0.809153 23.8471 0.857839 23.7741L1.36904 23.1168C1.41772 23.0438 1.53944 22.9951 1.63681 22.9951H12.7371C12.8345 22.9951 12.8832 23.0681 12.8588 23.1412L12.6641 23.7254C12.6397 23.8228 12.5424 23.8715 12.445 23.8715L0.930867 23.8958Z"
              fill="#00ACD7"/>
        <path d="M6.82174 26.1351C6.72437 26.1351 6.70002 26.062 6.74871 25.989L7.08951 25.3804C7.13819 25.3074 7.23556 25.2344 7.33293 25.2344H12.2015C12.2989 25.2344 12.3475 25.3074 12.3475 25.4048L12.2989 25.989C12.2989 26.0864 12.2015 26.1594 12.1285 26.1594L6.82174 26.1351Z"
              fill="#00ACD7"/>
        <path d="M32.0897 21.2177C30.5561 21.6072 29.5093 21.8993 28.0001 22.2888C27.6349 22.3862 27.6106 22.4105 27.2941 22.0454C26.929 21.6315 26.6612 21.3638 26.15 21.1203C24.6164 20.3657 23.1315 20.5848 21.744 21.4855C20.0887 22.5566 19.2367 24.1388 19.261 26.1106C19.2854 28.058 20.6242 29.6646 22.5473 29.9324C24.2026 30.1515 25.5901 29.5673 26.6856 28.3258C26.9047 28.058 27.0994 27.7659 27.3428 27.4251C26.4665 27.4251 25.3711 27.4251 22.6447 27.4251C22.1335 27.4251 22.0118 27.1086 22.1822 26.6948C22.4986 25.9402 23.0828 24.6744 23.4236 24.0415C23.4967 23.8954 23.6671 23.652 24.0322 23.652C25.2737 23.652 29.8501 23.652 32.893 23.652C32.8443 24.3092 32.8443 24.9665 32.7469 25.6237C32.4791 27.3764 31.8219 28.983 30.7508 30.3949C28.9981 32.7075 26.7099 34.1437 23.8131 34.5332C21.4275 34.8496 19.2123 34.3871 17.2649 32.9266C15.4636 31.5634 14.4412 29.762 14.1734 27.5225C13.8569 24.8691 14.6359 22.4835 16.2425 20.3901C17.9709 18.1262 20.2591 16.69 23.0585 16.1788C25.3467 15.7649 27.5376 16.0327 29.5093 17.3715C30.7995 18.2235 31.7245 19.392 32.3331 20.8039C32.4791 21.023 32.3818 21.1447 32.0897 21.2177Z"
              fill="#00ACD7"/>
        <path d="M40.1471 34.6794C37.9319 34.6307 35.9114 33.9978 34.2074 32.5373C32.7712 31.2958 31.8705 29.7135 31.5784 27.8391C31.1402 25.0884 31.8949 22.6541 33.5502 20.4876C35.3272 18.1507 37.4693 16.9336 40.3661 16.4224C42.8491 15.9842 45.186 16.2276 47.3038 17.6638C49.2269 18.9783 50.4197 20.7554 50.7361 23.0923C51.15 26.3785 50.2006 29.0562 47.9367 31.3445C46.3301 32.9754 44.3583 33.9978 42.0945 34.4603C41.4372 34.582 40.78 34.6064 40.1471 34.6794ZM45.9406 24.8449C45.9163 24.5285 45.9163 24.2851 45.8676 24.0416C45.4294 21.6317 43.2142 20.2685 40.9017 20.8041C38.6378 21.3153 37.1772 22.7515 36.6417 25.0397C36.2035 26.9384 37.1286 28.8615 38.8812 29.6405C40.2201 30.2247 41.5589 30.1517 42.8491 29.4944C44.7722 28.4964 45.8189 26.9384 45.9406 24.8449Z"
              fill="#00ACD7"/>
    </g>
    <defs>
        <clipPath id="clip0_541_1561">
            <rect width="50" height="50" fill="white" transform="translate(0.833496)"/>
        </clipPath>
    </defs>
</svg>
