<svg width="51" height="50" viewBox="0 0 51 50" fill="none" xmlns="http://www.w3.org/2000/svg">
    <g clip-path="url(#clip0_541_1227)">
        <path d="M31.5014 0.831444C29.8385 0.302343 28.0244 0 26.1726 0C20.8438 0 16.0441 2.41875 12.8317 6.23583L21.0705 13.1519L31.5014 0.831444Z"
              fill="#1A73E8"/>
        <path d="M12.8316 6.23633C10.2995 9.25976 8.75 13.1902 8.75 17.423C8.75 20.711 9.39248 23.3565 10.4885 25.7375L21.0705 13.1524L12.8316 6.23633Z"
              fill="#EA4335"/>
        <path d="M26.2103 10.7716C29.914 10.7716 32.8996 13.7572 32.8996 17.4609C32.8996 19.086 32.2949 20.5977 31.3123 21.7693C31.3123 21.7693 36.5655 15.4957 41.7054 9.41102C39.589 5.32938 35.923 2.23037 31.5013 0.832031L21.0704 13.1525C22.3176 11.7164 24.1317 10.7716 26.2103 10.7716Z"
              fill="#4285F4"/>
        <path d="M26.2104 24.1123C22.5067 24.1123 19.521 21.1266 19.521 17.4229C19.521 15.7978 20.0879 14.2861 21.0705 13.1523L10.4885 25.7374C12.3026 29.7434 15.326 32.9936 18.425 37.0375L31.3124 21.7313C30.0652 23.2053 28.2512 24.1123 26.2104 24.1123Z"
              fill="#FBBC04"/>
        <path d="M31.0857 41.2696C36.9058 32.1615 43.6707 28.0421 43.6707 17.46C43.6707 14.55 42.9526 11.8289 41.7055 9.41016L18.425 37.0368C19.4077 38.3217 20.4281 39.7956 21.4107 41.3074C24.9632 46.7873 23.9806 50.0375 26.2482 50.0375C28.5158 50.0375 27.5331 46.7495 31.0857 41.2696Z"
              fill="#34A853"/>
    </g>
    <defs>
        <clipPath id="clip0_541_1227">
            <rect width="50" height="50" fill="white" transform="translate(0.75)"/>
        </clipPath>
    </defs>
</svg>
