<svg width="51" height="50" viewBox="0 0 51 50" fill="none" xmlns="http://www.w3.org/2000/svg">
    <rect width="50" height="50" transform="translate(0.166504)" fill="#D50C2D"/>
    <path d="M39.3305 10H35.1373C34.1935 10 33.789 10.391 33.789 11.3483V21.9596H17.0834V11.3483C17.0834 10.4045 16.6923 10 15.735 10H11.5148C10.5575 10 10.1665 10.391 10.1665 11.3483V38.6517C10.1665 39.609 10.5575 40 11.5148 40H15.735C16.6789 40 17.0834 39.6225 17.0834 38.6517V27.8652H33.8025V38.6517C33.8025 39.5955 34.1935 40 35.1508 40H39.344C40.2878 40 40.6923 39.609 40.6923 38.6517V11.3483C40.6654 10.4315 40.2744 10 39.3305 10Z"
          fill="white"/>
</svg>
