<svg width="51" height="50" viewBox="0 0 51 50" fill="none" xmlns="http://www.w3.org/2000/svg">
    <path fill-rule="evenodd" clip-rule="evenodd"
          d="M43.1006 24.1057C43.1006 34.0073 35.2531 42.0342 25.5726 42.0342C15.8922 42.0342 8.04468 34.0073 8.04468 24.1057C8.04468 14.2038 15.8922 6.17677 25.5726 6.17677C35.2531 6.17677 43.1006 14.2038 43.1006 24.1057Z"
          fill="#D33833"/>
    <path d="M8.75891 28.5459C8.75891 28.5459 7.49 9.84938 24.7176 9.31513L23.5158 7.31192L14.1676 10.4503L11.4966 13.5219L9.15955 17.9958L7.82397 23.2042L8.22462 26.6763"
          fill="#EF3D3A"/>
    <path d="M13.5674 11.8753C10.492 15.0219 8.58901 19.3665 8.58901 24.1728C8.58901 28.9781 10.492 33.3232 13.5674 36.4692C16.6442 39.6153 20.8845 41.5566 25.5723 41.5566C30.2602 41.5566 34.5008 39.6153 37.5773 36.4692C40.6524 33.3232 42.5559 28.9781 42.5559 24.1728C42.5559 19.3665 40.6524 15.0219 37.5773 11.8753C34.5008 8.72986 30.2602 6.78856 25.5723 6.78815C20.8845 6.78856 16.6442 8.72986 13.5674 11.8753ZM12.7889 37.2303C9.52057 33.8878 7.5 29.2683 7.5 24.1728C7.5 19.0764 9.52057 14.4574 12.7889 11.1147C16.0565 7.77133 20.5797 5.69901 25.5723 5.69962C30.5649 5.69901 35.0885 7.77133 38.3556 11.1147C41.6242 14.4574 43.645 19.0768 43.6446 24.1728C43.645 29.2683 41.6242 33.8878 38.3556 37.2303C35.0885 40.5735 30.5649 42.6455 25.5723 42.6455C20.5797 42.6455 16.0565 40.5735 12.7889 37.2303Z"
          fill="#231F20"/>
    <path fill-rule="evenodd" clip-rule="evenodd"
          d="M32.951 24.2053L30.2799 24.6059L26.6741 25.0065L24.337 25.0732L22.0668 25.0065L20.3305 24.4723L18.7947 22.803L17.5928 19.3976L17.3257 18.663L15.7232 18.1289L14.7883 16.5931L14.1206 14.3895L14.8552 12.453L16.5912 11.8521L17.9934 12.52L18.6613 13.9889L19.4626 13.8553L19.7296 13.5216L19.4626 11.9857L19.3957 10.0492L19.7963 7.37833L19.7807 5.85269L20.9982 3.90618L23.135 2.37032L26.8745 0.767752L31.0143 1.36871L34.6201 3.97288L36.2896 6.64375L37.3579 8.58025L37.6249 13.3879L36.8236 17.528L35.3547 21.2004L33.9524 23.1369"
          fill="#F0D6B7"/>
    <path fill-rule="evenodd" clip-rule="evenodd"
          d="M30.6805 35.7572L21.1318 36.1578V37.7604L21.933 43.3694L21.5324 43.8369L14.8551 41.5665L14.3876 40.7652L13.7199 33.2199L12.1843 28.6793L11.8503 27.611L17.1921 23.9385L18.8616 23.2706L20.3305 25.0735L21.5991 26.2087L23.0683 26.6761L23.7359 26.8764L24.5372 30.3485L25.1382 31.0831L26.6741 30.5489L25.6055 32.619L31.4149 35.3565L30.6805 35.7572Z"
          fill="#335061"/>
    <path fill-rule="evenodd" clip-rule="evenodd"
          d="M14.8551 12.4534L16.5911 11.8524L17.9933 12.5203L18.6612 13.9893L19.4625 13.8556L19.6628 13.0544L19.2622 11.5187L19.6628 7.84603L19.3288 5.84282L20.5308 4.44058L23.1349 2.37067L22.4004 1.36907L18.7279 3.17195L17.1921 4.37387L16.324 6.24347L14.9885 8.04635L14.5879 10.1832L14.8551 12.4534Z"
          fill="#6D6B6D"/>
    <path fill-rule="evenodd" clip-rule="evenodd"
          d="M17.5928 6.17596C17.5928 6.17596 18.5944 3.7054 22.6008 2.50348C26.6072 1.30156 22.8011 1.63529 22.8011 1.63529L18.461 3.30476L16.7915 4.97403L16.0571 6.30957L17.5928 6.17596Z"
          fill="#DCD9D8"/>
    <path fill-rule="evenodd" clip-rule="evenodd"
          d="M15.5895 11.9858C15.5895 11.9858 14.1872 7.3115 19.5292 6.64383L19.3288 5.84255L15.6564 6.71074L14.5879 10.1829L14.8551 12.4531L15.5895 11.9858Z"
          fill="#DCD9D8"/>
    <path fill-rule="evenodd" clip-rule="evenodd"
          d="M17.7263 18.1955L18.6006 17.3484C18.6006 17.3484 18.9952 17.3942 19.0619 17.8616C19.1286 18.3291 19.3289 22.5359 22.2001 24.8063C22.462 25.0134 20.0635 24.4722 20.0635 24.4722L17.9266 21.1336"
          fill="#F7E4CD"/>
    <path fill-rule="evenodd" clip-rule="evenodd"
          d="M30.0131 16.9268C30.0131 16.9268 30.1687 14.9027 30.7138 15.0584C31.2589 15.214 31.2589 15.7591 31.2589 15.7591C31.2589 15.7591 29.9352 16.6155 30.0131 16.9268Z"
          fill="#F7E4CD"/>
    <path d="M35.5549 9.51511C35.5549 9.51511 34.4544 9.74748 34.353 10.717C34.2517 11.6868 35.5549 10.9173 35.7553 10.8506"
          fill="#F7E4CD"/>
    <path d="M27.4753 9.5817C27.4753 9.5817 26.0061 9.78202 26.0061 10.7167C26.0061 11.6516 27.6756 11.5849 28.143 11.1843"
          fill="#F7E4CD"/>
    <path fill-rule="evenodd" clip-rule="evenodd"
          d="M18.3941 13.9223C18.3941 13.9223 15.8566 12.3864 15.5896 13.8556C15.3225 15.3245 14.7214 16.3931 15.9903 17.9287L15.1222 17.6617L14.3209 15.5918L14.054 13.5886L15.5896 11.9858L17.3257 12.1194L18.3274 12.9207L18.3941 13.9223Z"
          fill="#F7E4CD"/>
    <path fill-rule="evenodd" clip-rule="evenodd"
          d="M19.5959 9.71582C19.5959 9.71582 20.7311 3.83982 26.4737 2.7046C31.2015 1.77011 33.6851 2.90492 34.62 3.97323C34.62 3.97323 30.4133 -1.03458 26.4068 0.501076C22.4004 2.03693 19.4625 4.84142 19.5292 6.64411C19.6429 9.71462 19.5959 9.71582 19.5959 9.71582Z"
          fill="#F7E4CD"/>
    <path fill-rule="evenodd" clip-rule="evenodd"
          d="M35.0874 4.64022C35.0874 4.64022 33.1511 4.57352 33.0842 6.3097C33.0842 6.3097 33.084 6.57672 33.2176 6.84375C33.2176 6.84375 34.7537 5.10757 35.6884 6.04247"
          fill="#F7E4CD"/>
    <path fill-rule="evenodd" clip-rule="evenodd"
          d="M26.6082 7.02505C26.6082 7.02505 26.2748 4.36019 24.0028 5.90947C22.5339 6.91107 22.6675 8.31331 22.9345 8.58034C23.2016 8.84757 23.129 9.38543 23.3323 9.01624C23.5355 8.64705 23.4686 7.44513 24.2032 7.11139C24.9377 6.77746 26.1418 6.40446 26.6082 7.02505Z"
          fill="#F7E4CD"/>
    <path fill-rule="evenodd" clip-rule="evenodd"
          d="M20.3305 25.073L14.0539 27.8775C14.0539 27.8775 16.658 38.2275 15.3225 41.4326L14.3876 41.0989L14.3209 37.1591L12.585 29.6806L11.8503 27.6105L18.394 23.2037L20.3305 25.073Z"
          fill="#49728B"/>
    <path fill-rule="evenodd" clip-rule="evenodd"
          d="M20.9757 30.7977L21.8662 31.8842V35.8906H20.7977C20.7977 35.8906 20.6643 33.0861 20.6643 32.7522C20.6643 32.4183 20.7977 31.2163 20.7977 31.2163"
          fill="#49728B"/>
    <path fill-rule="evenodd" clip-rule="evenodd" d="M20.9982 36.4913L17.9934 36.6247L18.8616 37.2257L20.9982 37.5596"
          fill="#49728B"/>
    <path fill-rule="evenodd" clip-rule="evenodd"
          d="M31.2815 35.8241L33.752 35.7574L34.353 41.9006L31.8155 42.2344L31.2815 35.8241Z" fill="#335061"/>
    <path fill-rule="evenodd" clip-rule="evenodd"
          d="M31.9492 35.8232L35.6886 35.6229C35.6886 35.6229 37.2243 31.7501 37.2243 31.5498C37.2243 31.3494 38.5598 25.9408 38.5598 25.9408L35.555 22.8026L34.954 22.2684L33.3515 23.8709V30.0809L31.9492 35.8232Z"
          fill="#335061"/>
    <path fill-rule="evenodd" clip-rule="evenodd"
          d="M33.6184 35.3561L31.2815 35.8235L31.6152 37.6933C32.4832 38.094 33.9524 37.0254 33.9524 37.0254"
          fill="#49728B"/>
    <path fill-rule="evenodd" clip-rule="evenodd"
          d="M33.6853 23.6714L38.3594 27.1436L38.493 25.541L34.9539 22.2692L33.6853 23.6714Z" fill="#49728B"/>
    <path fill-rule="evenodd" clip-rule="evenodd"
          d="M23.3156 48.9788L21.9331 43.369L21.2455 39.2298L21.1318 36.1575L27.3888 35.8244L31.2816 35.8237L30.9276 42.8356L31.5286 48.2442L31.4618 49.2458L26.3872 49.6465L23.3156 48.9788Z"
          fill="white"/>
    <path fill-rule="evenodd" clip-rule="evenodd"
          d="M30.4132 35.7569C30.4132 35.7569 30.0794 42.7014 31.081 47.6425C31.081 47.6425 29.0778 48.9114 26.1396 49.2451L31.7487 49.0448L32.4164 48.6442L31.6151 37.6934L31.4148 35.3561"
          fill="#DCD9D8"/>
    <path fill-rule="evenodd" clip-rule="evenodd"
          d="M34.4667 41.3662L37.0709 40.6317L42.012 40.3646L42.7465 38.0944L41.411 34.1547L39.8753 33.9544L37.7385 34.6221L35.6884 35.623L34.6001 35.4233L33.752 35.7566"
          fill="white"/>
    <path fill-rule="evenodd" clip-rule="evenodd"
          d="M34.4197 40.0304C34.4197 40.0304 36.1557 39.2293 36.4229 39.296L35.6885 35.6233L36.5565 35.2896C36.5565 35.2896 37.1575 38.7617 37.1575 39.1623C37.1575 39.1623 40.8966 39.3627 41.2306 39.3627C41.2306 39.3627 42.0319 37.8268 41.8315 36.2243L42.5661 38.3611L42.6328 39.563L41.5645 41.1656L40.3626 41.4326L38.3594 41.3659L37.6917 40.4979L35.3546 40.8317L34.62 41.0989"
          fill="#DCD9D8"/>
    <path d="M31.7956 35.29L30.3266 31.5506L28.7908 29.3471C28.7908 29.3471 29.1245 28.4122 29.5921 28.4122C30.0596 28.4122 31.1279 28.4122 31.1279 28.4122L32.5969 28.9465L32.4634 31.4171L31.7956 35.29Z"
          fill="white"/>
    <path fill-rule="evenodd" clip-rule="evenodd"
          d="M32.0827 34.0206C32.0827 34.0206 30.2129 30.415 30.2129 29.8808C30.2129 29.8808 30.5466 29.0795 31.0142 29.2798C31.4817 29.4801 32.4833 30.0142 32.4833 30.0142V28.7456L30.2129 28.278L28.6772 28.4783L31.2814 34.6216L31.8155 34.6885"
          fill="#DCD9D8"/>
    <path d="M23.9166 25.2079L22.0668 25.0068L20.3306 24.4726V25.0735L21.1789 26.009L23.8498 27.2109" fill="white"/>
    <path fill-rule="evenodd" clip-rule="evenodd"
          d="M20.9318 25.4076C20.9318 25.4076 23.0019 26.2758 23.6696 26.0755L23.736 26.876L21.8667 26.4761L20.7314 25.6749L20.9318 25.4076Z"
          fill="#DCD9D8"/>
    <path fill-rule="evenodd" clip-rule="evenodd"
          d="M34.4596 28.6396C33.3266 28.6064 32.303 28.4718 31.4068 28.219C31.4676 27.8516 31.3537 27.491 31.4452 27.2264C31.695 27.0465 32.1137 27.0493 32.4913 27.007C32.1648 26.8466 31.706 26.7831 31.3292 26.8758C31.3204 26.6208 31.206 26.4628 31.1367 26.2632C31.7737 26.0359 33.2775 24.5453 34.1235 25.0389C34.5265 25.2737 34.6978 26.6146 34.7291 27.2667C34.7551 27.8075 34.68 28.3532 34.4596 28.6396Z"
          fill="#D33833"/>
    <path d="M34.4596 28.6396C33.3266 28.6064 32.303 28.4718 31.4068 28.219C31.4676 27.8516 31.3537 27.491 31.4452 27.2264C31.695 27.0465 32.1137 27.0493 32.4913 27.007C32.1648 26.8466 31.706 26.7831 31.3292 26.8758C31.3204 26.6208 31.206 26.4628 31.1367 26.2632C31.7737 26.0359 33.2775 24.5453 34.1235 25.0389C34.5265 25.2737 34.6978 26.6146 34.7291 27.2667C34.7551 27.8075 34.68 28.3532 34.4596 28.6396Z"
          stroke="#D33833" stroke-width="2.5"/>
    <path fill-rule="evenodd" clip-rule="evenodd"
          d="M29.0415 26.7881C29.0385 26.8738 29.0349 26.9601 29.0315 27.0467C28.6777 27.2791 28.1066 27.2763 27.7184 27.4716C28.2907 27.4966 28.7412 27.6344 29.131 27.8287C29.1224 28.0447 29.1142 28.2604 29.1058 28.4764C28.4573 28.9203 27.865 29.5813 27.1015 29.9976C26.7406 30.1945 25.4737 30.7011 25.0896 30.6116C24.8723 30.5611 24.8528 30.2915 24.7659 30.0373C24.5809 29.493 24.1548 28.6266 24.1176 27.8073C24.0703 26.7724 23.9658 25.0381 25.081 25.2512C25.9808 25.4229 27.0272 25.8373 27.7238 26.218C28.1494 26.4507 28.3956 26.7384 29.0415 26.7881Z"
          fill="#D33833"/>
    <path d="M29.0415 26.7881C29.0385 26.8738 29.0349 26.9601 29.0315 27.0467C28.6777 27.2791 28.1066 27.2763 27.7184 27.4716C28.2907 27.4966 28.7412 27.6344 29.131 27.8287C29.1224 28.0447 29.1142 28.2604 29.1058 28.4764C28.4573 28.9203 27.865 29.5813 27.1015 29.9976C26.7406 30.1945 25.4737 30.7011 25.0896 30.6116C24.8723 30.5611 24.8528 30.2915 24.7659 30.0373C24.5809 29.493 24.1548 28.6266 24.1176 27.8073C24.0703 26.7724 23.9658 25.0381 25.081 25.2512C25.9808 25.4229 27.0272 25.8373 27.7238 26.218C28.1494 26.4507 28.3956 26.7384 29.0415 26.7881Z"
          stroke="#D33833" stroke-width="2.5"/>
    <path fill-rule="evenodd" clip-rule="evenodd"
          d="M29.6855 28.0228C29.5865 27.4591 29.4721 27.2982 29.5164 26.8064C31.0198 25.804 31.3021 28.5282 29.6855 28.0228Z"
          fill="#D33833"/>
    <path d="M29.6855 28.0228C29.5865 27.4591 29.4721 27.2982 29.5164 26.8064C31.0198 25.804 31.3021 28.5282 29.6855 28.0228Z"
          stroke="#D33833" stroke-width="2.5"/>
    <path fill-rule="evenodd" clip-rule="evenodd"
          d="M31.8624 28.4795C31.8624 28.4795 31.3948 27.8116 31.7288 27.6113C32.0627 27.411 32.3966 27.6115 32.597 27.2776C32.7973 26.9436 32.597 26.7433 32.6637 26.3427C32.7304 25.942 33.0645 25.8751 33.3982 25.8084C33.732 25.7417 34.6671 25.6081 34.8005 25.942L34.3998 24.7401L33.5986 24.4731L31.0611 25.942L30.9275 26.6766V28.1456"
          fill="#EF3D3A"/>
    <path fill-rule="evenodd" clip-rule="evenodd"
          d="M24.8511 30.6826C24.7709 29.6405 24.686 28.5999 24.5916 27.5588C24.4502 26.0043 24.965 26.2755 26.3124 26.2755C26.5182 26.2755 27.5796 26.5209 27.6556 26.6762C28.0197 27.42 27.0466 27.2547 28.075 27.8156C28.9432 28.289 30.4769 27.5282 30.1261 26.4759C29.9298 26.2419 29.1033 26.403 28.807 26.2493C28.2854 25.9789 27.7637 25.7084 27.242 25.438C26.5783 25.0937 25.0444 24.5917 24.3368 25.0728C22.5438 26.2922 24.4499 29.3388 25.0895 30.6109"
          fill="#EF3D3A"/>
    <path fill-rule="evenodd" clip-rule="evenodd"
          d="M26.6084 7.02444C24.7884 6.60056 23.8841 7.78606 23.3324 9.01562C22.8398 8.89623 23.0359 8.22636 23.1603 7.88502C23.486 6.98918 24.7988 5.79667 25.8715 5.95833C26.3331 6.02784 26.9578 6.44992 26.6084 7.02444Z"
          fill="#231F20"/>
    <path fill-rule="evenodd" clip-rule="evenodd"
          d="M35.4758 9.09708C35.5044 9.09828 35.5335 9.09929 35.5621 9.10049C35.9734 9.95485 36.3293 10.8599 36.8482 11.6141C36.5006 12.4236 34.2164 13.14 34.2516 11.6864C34.7456 11.4705 35.5984 11.6424 36.0363 11.3665C35.7831 10.6716 35.4177 10.0801 35.4758 9.09708Z"
          fill="#231F20"/>
    <path fill-rule="evenodd" clip-rule="evenodd"
          d="M27.5401 9.11983C27.9303 9.83517 28.0573 10.5868 28.612 11.1274C28.8618 11.3708 29.3475 11.6675 29.1068 12.3444C29.0505 12.504 28.6392 12.86 28.4018 12.9299C27.5346 13.1859 25.514 12.9828 26.1983 11.9017C26.9154 11.9351 27.8794 12.3674 28.4155 11.8468C28.0038 11.1887 27.2699 9.88685 27.5401 9.11983Z"
          fill="#231F20"/>
    <path fill-rule="evenodd" clip-rule="evenodd"
          d="M35.1501 16.3897C33.8444 17.2285 32.3885 18.1405 30.2491 17.929C29.792 17.5316 29.6177 16.6472 30.0618 16.063C30.293 16.4605 30.1477 17.1914 30.792 17.3014C32.0059 17.5091 33.4188 16.5588 34.292 16.2267C34.8334 15.3138 34.2453 14.9781 33.7575 14.3905C32.7589 13.1868 31.4194 11.6948 31.468 9.89275C31.8717 9.60008 31.9065 10.3395 31.9644 10.4741C32.4859 11.6944 33.7982 13.2551 34.7559 14.2996C34.9911 14.5568 35.3783 14.8036 35.4214 14.9737C35.5456 15.4683 35.0983 16.0608 35.1501 16.3897Z"
          fill="#231F20"/>
    <path fill-rule="evenodd" clip-rule="evenodd"
          d="M17.9369 15.5065C17.5276 15.273 17.4302 14.2441 16.9498 14.2149C16.2631 14.1732 16.3883 15.5496 16.3911 16.3545C15.9184 15.9254 15.8353 14.6043 16.1825 13.9258C15.7868 13.7315 15.6101 14.1401 15.3906 14.2842C15.6727 12.2349 18.3884 13.3337 17.9369 15.5065Z"
          fill="#231F20"/>
    <path fill-rule="evenodd" clip-rule="evenodd"
          d="M35.9816 17.243C35.3738 18.3998 34.5141 19.6739 32.7306 19.7109C32.6943 19.3373 32.6665 18.7688 32.7326 18.5439C34.096 18.4129 34.9377 17.719 35.9816 17.243Z"
          fill="#231F20"/>
    <path fill-rule="evenodd" clip-rule="evenodd"
          d="M27.4373 17.9932C28.5748 18.5914 30.6653 18.6557 32.2114 18.6104C32.2943 18.9491 32.2923 19.3676 32.2955 19.7807C30.3081 19.8798 27.9584 19.388 27.4373 17.9932Z"
          fill="#231F20"/>
    <path fill-rule="evenodd" clip-rule="evenodd"
          d="M27.221 19.1089C28.0076 21.0839 30.7112 20.8565 32.991 20.802C32.8907 21.0585 32.6731 21.3613 32.4027 21.4709C31.6721 21.7682 29.6571 21.9937 28.6429 21.4551C27.9996 21.1131 27.5864 20.3405 27.2339 19.8876C27.0638 19.6688 26.2163 19.1101 27.221 19.1089Z"
          fill="#231F20"/>
    <path fill-rule="evenodd" clip-rule="evenodd"
          d="M35.0553 30.0023C34.1322 31.5833 33.249 33.2071 32.1538 34.6016C32.6129 33.2516 32.8095 30.9921 32.8788 29.2696C33.8393 28.8201 34.6618 29.3708 35.0553 30.0023Z"
          fill="#81B0C4"/>
    <path fill-rule="evenodd" clip-rule="evenodd"
          d="M40.0225 35.6852C38.989 35.892 38.2629 36.8965 37.2546 36.832C37.8087 36.0509 38.7797 35.7216 40.0225 35.6852Z"
          fill="#231F20"/>
    <path fill-rule="evenodd" clip-rule="evenodd"
          d="M40.4783 37.3021C39.636 37.391 38.6466 37.5274 37.7922 37.4571C38.1967 36.8394 39.755 37.0525 40.4783 37.3021Z"
          fill="#231F20"/>
    <path fill-rule="evenodd" clip-rule="evenodd"
          d="M40.7703 38.6964C39.8236 38.7169 38.6469 38.698 37.7471 38.6225C38.2793 38.0508 40.1563 38.4104 40.7703 38.6964Z"
          fill="#231F20"/>
    <path fill-rule="evenodd" clip-rule="evenodd"
          d="M33.274 42.5124C33.4098 43.7014 33.8812 44.906 33.8221 46.2081C33.2987 46.3846 32.998 46.539 32.2967 46.5381C32.2472 45.4315 32.0991 43.7398 32.1434 42.6849C32.4884 42.7077 32.997 42.4385 33.274 42.5124Z"
          fill="#DCD9D8"/>
    <path fill-rule="evenodd" clip-rule="evenodd"
          d="M31.7477 24.99C31.2724 25.3003 30.8675 25.6877 30.411 26.019C29.3986 26.0691 28.8461 25.9489 28.1023 25.3676C28.1145 25.3209 28.1892 25.3418 28.192 25.2845C29.2758 25.7674 30.6534 25.0877 31.7477 24.99Z"
          fill="#F0D6B7"/>
    <path fill-rule="evenodd" clip-rule="evenodd"
          d="M26.0586 32.3775C26.3564 31.0873 27.5231 30.419 28.5825 29.7085C29.6761 31.0963 30.3411 32.8812 31.0735 34.6035C29.3431 34.0819 27.5751 33.2355 26.0586 32.3775Z"
          fill="#81B0C4"/>
    <path fill-rule="evenodd" clip-rule="evenodd"
          d="M32.1435 42.6851C32.0993 43.74 32.2473 45.4316 32.2968 46.5382C32.9981 46.5392 33.2988 46.3848 33.8222 46.2083C33.8813 44.9062 33.41 43.7015 33.2741 42.5126C32.9971 42.4386 32.4885 42.7079 32.1435 42.6851ZM21.2232 36.6857C21.6857 40.9371 22.3555 44.5109 23.584 48.2756C26.3107 49.1035 29.5977 49.1757 32.0077 48.4286C31.5652 46.3038 31.7585 43.717 31.4999 41.4495C31.305 39.7452 31.4044 38.0304 31.1371 36.2916C28.2169 35.6841 24.0891 36.1496 21.2232 36.6857ZM31.8276 36.3183C31.803 38.1442 31.9094 39.9453 32.0488 41.7734C32.7499 41.6682 33.2257 41.5979 33.8771 41.4551C33.6656 39.6951 33.6916 37.7147 33.2607 36.1578C32.7627 36.1626 32.3242 36.152 31.8276 36.3183ZM35.3843 36.024C35.0516 35.9477 34.6642 36.021 34.3463 36.0272C34.4957 37.5156 34.8583 39.158 34.9859 40.7204C35.4861 40.7359 35.7533 40.5 36.1648 40.4207C36.1868 39.0492 36.045 37.1598 35.3843 36.024ZM40.7697 40.9445C41.8124 40.6913 42.4681 39.4142 42.1764 38.1027C41.9807 37.2213 41.6321 35.5616 41.2591 34.9978C40.9835 34.5807 40.2361 34.0347 39.6393 34.4168C38.6686 35.0384 36.9584 35.2189 36.2505 35.9713C36.6055 37.1532 36.7156 38.7766 36.8621 40.2742C38.0748 40.3498 39.567 39.9404 40.5756 40.3748C39.8715 40.6029 38.9578 40.6047 38.3495 40.9371C38.8467 41.1772 40.0107 41.1287 40.7697 40.9445ZM31.0736 34.6035C30.3412 32.8812 29.6762 31.0964 28.5826 29.7085C27.5232 30.419 26.3565 31.0873 26.0587 32.3776C27.5752 33.2356 29.3433 34.0819 31.0736 34.6035ZM32.8789 29.27C32.8096 30.9925 32.6131 33.252 32.1539 34.602C33.2491 33.2075 34.1323 31.5837 35.0554 30.0027C34.662 29.3712 33.8394 28.8205 32.8789 29.27ZM30.8324 28.5428C30.4176 28.4982 30.0654 29.0198 29.5259 28.7942C29.4023 28.9309 29.29 29.0789 29.164 29.2123C30.3555 30.6482 30.8969 32.6855 31.8172 34.3729C32.311 32.752 32.2541 30.9761 32.3629 29.2069C31.6844 29.25 31.308 28.5933 30.8324 28.5428ZM29.5165 26.8061C29.4723 27.2978 29.5866 27.4587 29.6856 28.0224C31.3022 28.5278 31.0199 25.8037 29.5165 26.8061ZM27.7239 26.2175C27.0273 25.8369 25.9809 25.4224 25.0811 25.2508C23.9659 25.0374 24.0704 26.772 24.1177 27.8069C24.1549 28.6262 24.581 29.4926 24.766 30.0368C24.8529 30.291 24.8724 30.5607 25.0897 30.6111C25.4738 30.7006 26.7406 30.1941 27.1016 29.9972C27.8651 29.5809 28.4574 28.9198 29.1059 28.4759C29.1143 28.26 29.1225 28.0442 29.1311 27.8283C28.7413 27.634 28.2908 27.4962 27.7185 27.4711C28.1067 27.2758 28.6778 27.2786 29.0316 27.0462C29.035 26.9597 29.0386 26.8734 29.0416 26.7876C28.3957 26.7379 28.1495 26.4503 27.7239 26.2175ZM21.0705 25.009C20.4924 25.5959 22.692 26.396 23.3923 26.4391C23.3884 26.0677 23.604 25.7175 23.5606 25.4511C22.7288 25.3051 21.6356 25.4014 21.0705 25.009ZM28.1922 25.2846C28.1894 25.3419 28.1147 25.3211 28.1025 25.3678C28.8463 25.9491 29.3987 26.0693 30.4112 26.0192C30.8677 25.6879 31.2725 25.3004 31.7479 24.9902C30.6535 25.0879 29.2759 25.7676 28.1922 25.2846ZM34.7291 27.2668C34.6978 26.6147 34.5265 25.2738 34.1235 25.039C33.2775 24.5452 31.7737 26.036 31.1367 26.2634C31.206 26.4629 31.3204 26.621 31.3292 26.876C31.706 26.7832 32.1648 26.8467 32.4913 27.0072C32.1137 27.0494 31.695 27.0466 31.4452 27.2265C31.3537 27.4912 31.4677 27.8517 31.4068 28.2191C32.303 28.4719 33.3266 28.6065 34.4596 28.6398C34.68 28.3533 34.7551 27.8077 34.7291 27.2668ZM20.0972 25.5767C19.9157 25.4473 18.6875 23.8493 18.5193 23.9156C16.297 24.792 14.2191 26.3075 12.3622 27.7408C14.1326 31.5396 14.8473 36.1939 14.9735 40.6798C17.0016 41.6284 18.783 42.9958 21.5351 43.1386C21.2166 40.8854 20.9259 38.8751 20.7451 36.7538C20.0536 36.4623 19.0616 36.767 18.4144 36.6634C18.409 35.8836 19.4027 36.3219 19.4855 35.7975C19.5479 35.4008 18.9387 35.3708 19.1371 34.7462C19.643 34.9301 19.9086 35.3363 20.4482 35.4888C20.9411 34.4103 20.4413 32.502 20.5123 31.6005C20.5258 31.4313 20.5968 30.6628 20.976 30.7977C21.3115 30.917 20.9568 32.8413 20.9936 33.6945C21.0271 34.4805 20.8986 35.2411 21.217 35.7346C23.8763 35.3726 26.5787 35.1386 29.456 35.0597C28.823 34.788 28.071 34.531 27.2465 34.0663C26.7996 33.8143 25.3907 33.29 25.2617 32.8655C25.0559 32.189 25.8016 31.8287 25.9292 31.2488C24.5868 31.9809 24.3249 30.547 24.0074 29.5312C23.7197 28.6111 23.5559 27.9238 23.4853 27.3932C22.3289 26.8419 21.0925 26.2836 20.0972 25.5767ZM33.5546 24.1089C35.4062 23.2111 35.7399 27.4645 35.0141 28.8347C35.1263 29.2434 35.5121 29.3998 35.6696 29.7672C34.6363 31.6181 33.4887 33.3459 32.4344 35.1751C33.2187 34.6869 34.3388 35.0877 35.2617 34.7223C35.5991 34.5889 35.8433 33.8167 36.0987 33.1989C36.8012 31.4992 37.5388 29.3563 37.8669 27.7343C37.941 27.3647 38.1429 26.5595 38.0977 26.2305C38.0169 25.6416 37.2179 25.2049 36.8114 24.8407C36.0626 24.168 35.591 23.5761 34.81 22.9471C34.4933 23.4146 33.8136 23.7287 33.5546 24.1089ZM15.8627 7.68907C14.9804 8.65982 15.1651 10.4787 15.2719 11.7728C16.8666 10.7696 18.9833 11.8521 18.9634 13.5585C19.7247 13.5382 19.2478 12.6075 19.1101 12.008C18.66 10.0496 19.8683 7.92204 19.1649 6.13118C17.799 6.23474 16.6769 6.79263 15.8627 7.68907ZM22.1755 2.05486C20.1782 2.62096 17.6184 4.07228 16.7976 5.86655C17.4332 5.77421 17.8744 5.45369 18.5013 5.41403C18.7382 5.39861 19.0487 5.51339 19.321 5.44568C19.8636 5.31107 20.3216 4.09431 20.731 3.64159C21.1301 3.19949 21.6098 3.01059 21.938 2.60754C22.1489 2.50578 22.4608 2.51279 22.4727 2.19608C22.3813 2.09832 22.2851 2.02381 22.1755 2.05486ZM32.5728 2.58731C30.4997 1.41763 26.9907 0.537827 24.7854 1.63718C23.006 2.52441 20.6007 3.99236 19.7807 5.85253C20.5468 7.6476 19.5538 9.29243 19.4904 11.115C19.4567 12.0847 19.947 12.9313 19.9845 13.9869C19.7224 14.4194 18.9215 14.4727 18.3671 14.4431C18.1805 13.5092 17.8538 12.4595 16.8921 12.3541C15.5313 12.2053 14.5364 13.3315 14.4745 14.5084C14.4014 15.8924 15.5376 18.1863 17.148 18.027C17.7701 17.9655 17.9229 17.3419 18.6007 17.3483C18.9681 18.0813 18.034 18.3115 17.9379 18.8357C17.9129 18.9711 18.0154 19.5004 18.075 19.7486C18.3675 20.9571 19.0196 22.5212 19.6614 23.4413C20.4759 24.6083 22.0763 24.7842 23.7981 24.8986C24.1056 24.2361 25.2384 24.2906 25.9765 24.4639C25.0919 24.1135 24.2695 23.2642 23.5879 22.5124C22.805 21.6498 22.012 20.7245 21.9719 19.5971C23.4514 21.6496 24.6737 23.4421 27.3639 24.3449C29.3995 25.0276 31.7769 24.032 33.341 22.9337C33.9901 22.4771 34.3775 21.7528 34.8388 21.0897C36.565 18.6067 37.3705 15.0627 37.1934 11.6276C37.1205 10.2109 37.1237 8.79905 36.6483 7.84592C36.1515 6.84933 34.4713 5.9577 33.4877 6.85914C33.3054 5.88999 34.3056 5.29063 35.4805 5.63939C34.6427 4.55826 33.7635 3.25918 32.5728 2.58731ZM36.4352 34.5519C38.0552 33.7465 41.082 32.3842 42.0977 34.5549C42.4725 35.355 42.9122 36.7075 43.1063 37.5335C43.3805 38.6987 42.809 41.1478 41.6113 41.5388C40.5534 41.8842 39.319 41.8631 38.0448 41.6072C37.8947 41.4824 37.7277 41.2648 37.6109 41.038C36.701 41.0028 35.8491 41.0869 35.1303 41.4609C35.1984 42.1338 34.7433 42.2418 34.3166 42.3804C34.0003 43.6345 34.9494 45.2724 34.7223 46.416C34.5602 47.2308 33.5578 47.3568 32.821 47.5092C32.797 47.9619 32.8533 48.3399 32.9035 48.7229C32.7351 49.3437 31.9795 49.6971 31.2635 49.7836C28.908 50.0669 25.3314 50.1941 23.0656 49.3794C22.4334 47.8285 21.9353 45.9423 21.4087 44.1714C19.1989 44.4074 17.4117 43.2179 15.7268 42.4386C15.1434 42.1682 14.3364 42.0192 14.1185 41.5549C13.9072 41.1053 13.9937 40.2437 13.9413 39.4299C13.8079 37.3511 13.6936 35.3461 13.1447 33.2177C12.8982 32.2626 12.4686 31.4198 12.1689 30.4995C11.8919 29.6466 11.4079 28.5925 11.2817 27.742C11.0945 26.4813 12.2816 26.4112 13.0406 25.865C14.214 25.0202 15.135 24.5531 16.4058 23.7906C16.7821 23.5649 17.9172 22.9934 18.0463 22.7301C18.3029 22.2083 17.6057 21.4725 17.4193 21.0635C17.1245 20.4166 16.9707 19.8672 16.9285 19.2289C15.8625 19.0605 15.0544 18.426 14.5662 17.7107C13.7588 16.5268 13.1988 14.3365 13.8974 12.6704C13.9522 12.5392 14.2255 12.2812 14.2658 12.0797C14.3453 11.6829 14.1161 11.1552 14.1019 10.7331C14.0285 8.56767 14.4683 6.70189 15.9261 6.04884C16.5179 3.69127 18.636 2.90742 20.6317 1.73574C21.3776 1.29784 22.1999 1.01799 23.0492 0.705494C26.0957 -0.415699 30.7699 -0.204559 33.2984 1.7077C34.3705 2.5186 36.0842 4.23074 36.6972 5.47032C38.3162 8.74295 38.2012 14.2123 37.0688 18.1933C36.9166 18.7277 36.6958 19.5134 36.3875 20.1554C36.1726 20.6037 35.5045 21.5008 35.5856 21.8966C35.6692 22.3059 37.1089 23.399 37.4176 23.6967C37.9735 24.2329 39.0296 24.9447 39.1151 25.6214C39.207 26.3415 38.7978 27.3267 38.5904 28.0216C37.8973 30.3407 37.2211 32.4844 36.4352 34.5519Z"
          fill="#231F20"/>
    <path fill-rule="evenodd" clip-rule="evenodd"
          d="M25.6271 18.4986C25.715 18.3816 26.1982 18.204 26.8743 18.5295C26.8743 18.5295 26.073 18.6631 26.1397 19.999L25.8058 19.9321C25.8058 19.9321 25.4607 18.7208 25.6271 18.4986Z"
          fill="#F7E4CD"/>
    <path fill-rule="evenodd" clip-rule="evenodd"
          d="M31.4816 29.9815C31.4816 30.1842 31.3172 30.3486 31.1143 30.3486C30.9115 30.3486 30.7471 30.1842 30.7471 29.9815C30.7471 29.7788 30.9115 29.6141 31.1143 29.6141C31.3172 29.6141 31.4816 29.7788 31.4816 29.9815Z"
          fill="#1D1919"/>
    <path fill-rule="evenodd" clip-rule="evenodd"
          d="M31.8488 31.6836C31.8488 31.8864 31.6844 32.0508 31.4814 32.0508C31.2787 32.0508 31.1143 31.8864 31.1143 31.6836C31.1143 31.4809 31.2787 31.3162 31.4814 31.3162C31.6844 31.3162 31.8488 31.4809 31.8488 31.6836Z"
          fill="#1D1919"/>
</svg>
