<svg width="50" height="50" viewBox="0 0 50 50" fill="none" xmlns="http://www.w3.org/2000/svg">
    <path d="M34.2567 27.6702C32.3113 27.6702 30.5672 28.5321 29.3728 29.8891L26.3124 27.7225C26.6373 26.828 26.8238 25.8675 26.8238 24.8623C26.8238 23.8744 26.6437 22.93 26.3296 22.0488L29.3832 19.9052C30.5774 21.2553 32.3169 22.1125 34.2567 22.1125C37.8475 22.1125 40.7692 19.1912 40.7692 15.6C40.7692 12.0088 37.8475 9.0875 34.2567 9.0875C30.666 9.0875 27.7442 12.0088 27.7442 15.6C27.7442 16.2428 27.8413 16.8626 28.0156 17.4496L24.96 19.5943C23.6835 18.0108 21.8457 16.9052 19.7517 16.5677V12.885C22.7017 12.2654 24.9244 9.64435 24.9244 6.5125C24.9244 2.92127 22.0026 0 18.4119 0C14.8212 0 11.8994 2.92127 11.8994 6.5125C11.8994 9.6024 14.0645 12.1911 16.9555 12.8549V16.5855C13.0101 17.278 10 20.7213 10 24.8623C10 29.0234 13.0399 32.4793 17.0138 33.1483V37.0875C14.0933 37.7294 11.8994 40.334 11.8994 43.445C11.8994 47.0362 14.8212 49.9575 18.4119 49.9575C22.0026 49.9575 24.9244 47.0362 24.9244 43.445C24.9244 40.334 22.7305 37.7294 19.81 37.0875V33.1482C21.8214 32.8094 23.6411 31.7511 24.9302 30.1703L28.0111 32.351C27.84 32.9327 27.7442 33.5464 27.7442 34.1827C27.7442 37.7739 30.666 40.6952 34.2567 40.6952C37.8475 40.6952 40.7692 37.7739 40.7692 34.1827C40.7692 30.5915 37.8475 27.6702 34.2567 27.6702ZM34.2567 12.4424C35.998 12.4424 37.4142 13.8593 37.4142 15.6C37.4142 17.3407 35.998 18.7575 34.2567 18.7575C32.5155 18.7575 31.0993 17.3407 31.0993 15.6C31.0993 13.8593 32.5155 12.4424 34.2567 12.4424ZM15.2543 6.5125C15.2543 4.77175 16.6707 3.35505 18.4119 3.35505C20.1531 3.35505 21.5694 4.77175 21.5694 6.5125C21.5694 8.25324 20.1531 9.66995 18.4119 9.66995C16.6707 9.66995 15.2543 8.25324 15.2543 6.5125ZM21.5694 43.445C21.5694 45.1857 20.1531 46.6024 18.4119 46.6024C16.6707 46.6024 15.2543 45.1857 15.2543 43.445C15.2543 41.7042 16.6707 40.2875 18.4119 40.2875C20.1531 40.2875 21.5694 41.7042 21.5694 43.445ZM18.4117 29.2659C15.9832 29.2659 14.0076 27.2906 14.0076 24.8623C14.0076 22.4338 15.9832 20.4582 18.4117 20.4582C20.84 20.4582 22.8156 22.4338 22.8156 24.8623C22.8156 27.2906 20.84 29.2659 18.4117 29.2659ZM34.2567 37.3403C32.5155 37.3403 31.0993 35.9234 31.0993 34.1827C31.0993 32.4419 32.5155 31.0252 34.2567 31.0252C35.998 31.0252 37.4142 32.4419 37.4142 34.1827C37.4142 35.9234 35.998 37.3403 34.2567 37.3403Z"
          fill="#231F20"/>
</svg>
