<svg width="50" height="50" viewBox="0 0 50 50" fill="none" xmlns="http://www.w3.org/2000/svg">
    <path d="M49.7664 9.16262C49.6305 9.0507 49.4581 8.99301 49.2822 9.00068C48.7998 9.00068 48.1759 9.32797 47.8401 9.50356L47.7071 9.57174C47.1438 9.84445 46.5306 9.99877 45.9053 10.0252C45.2643 10.0456 44.712 10.0831 43.9926 10.1582C39.7309 10.5963 37.8302 13.8624 35.9994 17.0212C35.0022 18.7395 33.9725 20.5243 32.5611 21.888C32.269 22.1712 31.9587 22.4349 31.632 22.6773C30.1711 23.7632 28.3369 24.5388 26.91 25.0877C25.5361 25.6128 24.036 26.085 22.587 26.5418C21.259 26.9595 20.0061 27.3549 18.8537 27.7828C18.3338 27.9754 17.8923 28.1238 17.5019 28.2533C16.4518 28.5942 15.695 28.8551 14.5886 29.6171C14.1574 29.912 13.7244 30.2307 13.4312 30.4694C12.553 31.1701 11.7757 31.9887 11.1213 32.902C10.5586 33.7444 9.90836 34.525 9.1814 35.2306C8.94785 35.459 8.53362 35.5715 7.91312 35.5715C7.18692 35.5715 6.3056 35.4215 5.37315 35.2629C4.41171 35.0925 3.41788 34.9305 2.56554 34.9305C1.87344 34.9305 1.34329 35.043 0.947801 35.2715C0.947801 35.2715 0.281272 35.6601 0 36.163L0.276158 36.2875C0.704404 36.5196 1.10089 36.8061 1.4558 37.1398C1.82608 37.4818 2.23854 37.7751 2.68316 38.0126C2.82509 38.0646 2.95416 38.1466 3.0616 38.253C2.94568 38.4234 2.77522 38.6433 2.59622 38.8786C1.61263 40.1656 1.03815 40.9787 1.36715 41.4219C1.52484 41.5039 1.70096 41.5438 1.87856 41.5379C4.02304 41.5379 5.1754 40.9804 6.6329 40.2747C7.05566 40.0701 7.48524 39.8605 7.99665 39.644C8.84898 39.2741 9.7661 38.6842 10.7395 38.0603C12.0129 37.2301 13.3442 36.3778 14.6364 35.967C15.6983 35.6432 16.8044 35.4879 17.9145 35.5067C19.2782 35.5067 20.7135 35.6891 22.0977 35.8664C23.1291 35.9994 24.1979 36.1357 25.2463 36.1988C25.6537 36.2227 26.0304 36.2346 26.3969 36.2346C26.8872 36.2361 27.3772 36.2104 27.8647 36.1579L27.9823 36.117C28.717 35.6653 29.0614 34.6953 29.3955 33.7577C29.6103 33.1543 29.791 32.6122 30.0773 32.2678C30.0942 32.251 30.1125 32.2356 30.1319 32.2218C30.1453 32.2143 30.1609 32.2116 30.176 32.2141C30.1912 32.2166 30.2051 32.2241 30.2154 32.2354C30.2154 32.2354 30.2154 32.244 30.2154 32.2627C30.045 35.9295 28.5687 38.2581 27.0754 40.3275L26.0782 41.3964C26.0782 41.3964 27.4743 41.3964 28.2687 41.0895C31.1666 40.2236 33.3537 38.3143 34.9459 35.2698C35.3385 34.4882 35.6896 33.6865 35.9977 32.8679C36.025 32.7997 36.2756 32.6735 36.2517 33.0264C36.2432 33.1304 36.2363 33.2463 36.2278 33.3673C36.2278 33.4389 36.2278 33.5122 36.2142 33.5855C36.1733 34.0969 36.0522 35.1777 36.0522 35.1777L36.9472 34.6987C39.1053 33.335 40.7691 30.5836 42.0305 26.3032C42.5556 24.5201 42.9408 22.7489 43.2801 21.1891C43.6858 19.314 44.0352 17.7065 44.4358 17.0826C45.0649 16.1041 46.0246 15.4427 46.9537 14.8C47.0798 14.7131 47.2076 14.6295 47.3321 14.5375C48.4998 13.7175 49.6607 12.7714 49.9164 11.0071V10.9679C50.1022 9.65186 49.9454 9.31604 49.7664 9.16262Z"
          fill="#003545"/>
</svg>
