<svg width="46" height="50" viewBox="0 0 46 50" fill="none" xmlns="http://www.w3.org/2000/svg">
    <path d="M24.1876 0.318563C23.4586 -0.0938179 22.5931 -0.0938179 21.8643 0.318563L2.68642 11.4569C1.95761 11.8695 1.54761 12.6486 1.54761 13.4738V35.7959C1.54761 36.6212 2.00308 37.4002 2.68642 37.8129L21.8643 48.9512C22.5931 49.3636 23.4586 49.3636 24.1876 48.9512L43.3652 37.8129C44.0943 37.4002 44.504 36.6212 44.504 35.7959V13.4738C44.504 12.6486 44.0486 11.8695 43.3652 11.4569L24.1876 0.318563Z"
          fill="url(#paint0_linear_541_1482)"/>
    <path d="M43.4112 11.4558L24.1424 0.317427C23.9603 0.22576 23.7324 0.134093 23.5503 0.0883789L1.95813 37.2617C2.14027 37.4908 2.36813 37.6741 2.59575 37.8117L21.8648 48.95C22.4115 49.2708 23.0491 49.3624 23.6412 49.1791L43.9124 11.8684C43.7757 11.685 43.5936 11.5474 43.4112 11.4558Z"
          fill="url(#paint1_linear_541_1482)"/>
    <path d="M43.4114 37.811C43.9581 37.4901 44.3681 36.9401 44.5502 36.3441L23.459 0.0417275C22.9126 -0.0499392 22.3202 -0.00422611 21.8193 0.316726L2.68689 11.4091L23.3224 49.2701C23.5957 49.2241 23.9147 49.1324 24.1881 48.9951L43.4114 37.811Z"
          fill="url(#paint2_linear_541_1482)"/>
    <defs>
        <linearGradient id="paint0_linear_541_1482" x1="30.8364" y1="8.61404" x2="13.3226" y2="44.1212"
                        gradientUnits="userSpaceOnUse">
            <stop stop-color="#3F873F"/>
            <stop offset="0.3296" stop-color="#3F8B3D"/>
            <stop offset="0.6367" stop-color="#3E9638"/>
            <stop offset="0.9341" stop-color="#3DA92E"/>
            <stop offset="1" stop-color="#3DAE2B"/>
        </linearGradient>
        <linearGradient id="paint1_linear_541_1482" x1="20.1117" y1="27.2403" x2="68.9784" y2="-8.64184"
                        gradientUnits="userSpaceOnUse">
            <stop offset="0.1376" stop-color="#3F873F"/>
            <stop offset="0.4016" stop-color="#52A044"/>
            <stop offset="0.7129" stop-color="#64B749"/>
            <stop offset="0.9081" stop-color="#6ABF4B"/>
        </linearGradient>
        <linearGradient id="paint2_linear_541_1482" x1="0.844985" y1="24.6258" x2="45.2214" y2="24.6258"
                        gradientUnits="userSpaceOnUse">
            <stop offset="0.0919165" stop-color="#6ABF4B"/>
            <stop offset="0.2871" stop-color="#64B749"/>
            <stop offset="0.5984" stop-color="#52A044"/>
            <stop offset="0.8624" stop-color="#3F873F"/>
        </linearGradient>
    </defs>
</svg>
