<svg width="51" height="50" viewBox="0 0 51 50" fill="none" xmlns="http://www.w3.org/2000/svg">
    <g clip-path="url(#clip0_541_1489)">
        <mask id="mask0_541_1489" style="mask-type:luminance" maskUnits="userSpaceOnUse" x="1" y="11" width="49"
              height="27">
            <path d="M1.20312 24.7638C1.20312 31.8226 12.0815 37.5449 25.5 37.5449C38.9186 37.5449 49.7971 31.8226 49.7971 24.7638C49.7971 17.7052 38.9186 11.9827 25.5 11.9827C12.0815 11.9827 1.20312 17.7052 1.20312 24.7638Z"
                  fill="white"/>
        </mask>
        <g mask="url(#mask0_541_1489)">
            <path d="M1.20312 24.7638C1.20312 31.8226 12.0815 37.5449 25.5 37.5449C38.9186 37.5449 49.7971 31.8226 49.7971 24.7638C49.7971 17.7052 38.9186 11.9827 25.5 11.9827C12.0815 11.9827 1.20312 17.7052 1.20312 24.7638Z"
                  fill="url(#paint0_radial_541_1489)"/>
        </g>
        <mask id="mask1_541_1489" style="mask-type:luminance" maskUnits="userSpaceOnUse" x="0" y="10" width="51"
              height="29">
            <path d="M0.190674 10.527H50.8093V39H0.190674V10.527Z" fill="white"/>
        </mask>
        <g mask="url(#mask1_541_1489)">
            <path d="M25.4999 36.5957C38.3944 36.5957 48.8477 31.2982 48.8477 24.7635C48.8477 18.2289 38.3944 12.9313 25.4999 12.9313C12.6055 12.9313 2.1521 18.2289 2.1521 24.7635C2.1521 31.2982 12.6055 36.5957 25.4999 36.5957Z"
                  fill="#777BB3"/>
        </g>
        <mask id="mask2_541_1489" style="mask-type:luminance" maskUnits="userSpaceOnUse" x="0" y="10" width="51"
              height="29">
            <path d="M0.190674 10.527H50.8093V39H0.190674V10.527Z" fill="white"/>
        </mask>
        <g mask="url(#mask2_541_1489)">
            <path d="M14.4039 26.2307C15.4642 26.2307 16.2557 26.0352 16.7565 25.6498C17.252 25.2683 17.5942 24.6073 17.7736 23.6854C17.9408 22.8236 17.8771 22.2219 17.5843 21.8972C17.2849 21.5656 16.6375 21.3974 15.6603 21.3974H13.9659L13.0266 26.2307H14.4039ZM8.86196 32.1846C8.7833 32.1846 8.70861 32.1494 8.6586 32.0886C8.60851 32.0279 8.58821 31.9479 8.60324 31.8707L11.0927 19.0621C11.1168 18.9383 11.2253 18.8489 11.3515 18.8489H16.7169C18.4031 18.8489 19.6582 19.3067 20.4471 20.2098C21.2402 21.1177 21.4851 22.3868 21.175 23.9817C21.0488 24.6315 20.8318 25.235 20.5299 25.7753C20.2277 26.3162 19.8283 26.8166 19.3426 27.2631C18.7611 27.8072 18.1031 28.2018 17.3885 28.434C16.6852 28.6631 15.7819 28.7792 14.7039 28.7792H12.5314L11.9109 31.9712C11.8869 32.0951 11.7784 32.1846 11.6522 32.1846H8.86196Z"
                  fill="black"/>
            <path d="M14.1832 21.661H15.6603C16.8397 21.661 17.2494 21.9198 17.3886 22.0741C17.6196 22.3301 17.6632 22.8701 17.5147 23.6354C17.3479 24.4922 17.0388 25.0998 16.5957 25.4409C16.1421 25.7901 15.4046 25.9671 14.4039 25.9671H13.3463L14.1832 21.661ZM16.7169 18.5853H11.3514C11.099 18.5853 10.882 18.7642 10.8339 19.0119L8.34442 31.8204C8.31436 31.975 8.35496 32.1349 8.45506 32.2564C8.55524 32.3779 8.70446 32.4482 8.86194 32.4482H11.6521C11.9046 32.4482 12.1216 32.2693 12.1697 32.0216L12.7487 29.0429H14.7039C15.8096 29.0429 16.7404 28.9223 17.4703 28.6846C18.2208 28.4408 18.9114 28.0273 19.5226 27.4557C20.0281 26.9907 20.4445 26.4687 20.7599 25.904C21.0755 25.3392 21.3022 24.7094 21.4338 24.032C21.7603 22.3532 21.4951 21.0088 20.6456 20.0365C19.8044 19.0735 18.4825 18.5853 16.7169 18.5853ZM12.7067 26.4944H14.4039C15.5288 26.4944 16.3668 26.2825 16.9173 25.8587C17.468 25.4348 17.8394 24.7272 18.0323 23.7358C18.217 22.7839 18.1329 22.1121 17.78 21.7208C17.4268 21.3295 16.7203 21.1338 15.6603 21.1338H13.7486L12.7067 26.4944ZM16.7169 19.1125C18.331 19.1125 19.5084 19.5361 20.2486 20.3834C20.9886 21.2306 21.2115 22.4132 20.9162 23.9315C20.7947 24.5569 20.5891 25.1288 20.2997 25.6468C20.01 26.1652 19.6317 26.6392 19.1641 27.0691C18.607 27.5904 17.988 27.962 17.307 28.1833C16.6259 28.4052 15.7585 28.5156 14.7039 28.5156H12.3139L11.6521 31.921H8.86194L11.3514 19.1125H16.7169Z"
                  fill="white"/>
            <path d="M27.5726 28.7793C27.4939 28.7793 27.4193 28.7441 27.3692 28.6833C27.3191 28.6226 27.2988 28.5427 27.3138 28.4654L28.415 22.7981C28.5198 22.2592 28.4939 21.8723 28.3423 21.7089C28.2495 21.6089 27.9708 21.4414 27.1466 21.4414H25.1515L23.767 28.5659C23.7429 28.6898 23.6344 28.7793 23.5082 28.7793H20.74C20.6612 28.7793 20.5866 28.7441 20.5365 28.6833C20.4864 28.6226 20.4661 28.5426 20.4812 28.4654L22.9706 15.6569C22.9947 15.533 23.1032 15.4436 23.2294 15.4436H25.9976C26.0764 15.4436 26.151 15.4787 26.2011 15.5395C26.2512 15.6003 26.2715 15.6802 26.2564 15.7575L25.6557 18.8489H27.8019C29.4369 18.8489 30.5456 19.1372 31.1913 19.7302C31.8495 20.3351 32.0549 21.3024 31.8018 22.6055L30.6436 28.5659C30.6195 28.6898 30.511 28.7793 30.3847 28.7793H27.5726Z"
                  fill="black"/>
            <path d="M25.9976 15.18H23.2294C22.9769 15.18 22.76 15.3589 22.7118 15.6066L20.2223 28.4152C20.1923 28.5697 20.2329 28.7296 20.3331 28.8511C20.4333 28.9727 20.5825 29.043 20.74 29.043H23.5082C23.7605 29.043 23.9776 28.864 24.0258 28.6163L25.3688 21.705H27.1465C27.9694 21.705 28.142 21.8808 28.149 21.8883C28.1989 21.942 28.2645 22.1907 28.1562 22.7479L27.055 28.4152C27.0249 28.5697 27.0655 28.7296 27.1657 28.8511C27.2659 28.9727 27.4151 29.043 27.5726 29.043H30.3847C30.6371 29.043 30.8542 28.864 30.9023 28.6163L32.0605 22.6559C32.3323 21.2568 32.0998 20.2072 31.3697 19.5362C30.673 18.8963 29.5059 18.5853 27.8019 18.5853H25.9754L26.5152 15.8079C26.5452 15.6533 26.5047 15.4934 26.4045 15.3719C26.3043 15.2504 26.1551 15.18 25.9976 15.18ZM25.9976 15.7073L25.3358 19.1126H27.8019C29.3535 19.1126 30.4238 19.3834 31.0129 19.9244C31.6019 20.4658 31.7784 21.3429 31.543 22.5554L30.3847 28.5157H27.5726L28.6738 22.8485C28.7991 22.2038 28.7531 21.7641 28.5355 21.5296C28.3178 21.2952 27.8548 21.1778 27.1465 21.1778H24.9341L23.5082 28.5157H20.74L23.2294 15.7073H25.9976Z"
                  fill="white"/>
            <path d="M36.1817 26.2307C37.242 26.2307 38.0335 26.0352 38.5343 25.6498C39.0298 25.2684 39.372 24.6074 39.5515 23.6854C39.7187 22.8236 39.655 22.2219 39.3621 21.8972C39.0627 21.5656 38.4154 21.3974 37.4381 21.3974H35.7437L34.8044 26.2307H36.1817ZM30.6399 32.1846C30.5612 32.1846 30.4865 32.1494 30.4365 32.0886C30.3864 32.0279 30.366 31.9479 30.3811 31.8707L32.8705 19.0621C32.8947 18.9383 33.0031 18.8489 33.1294 18.8489H38.4947C40.181 18.8489 41.436 19.3067 42.225 20.2098C43.0181 21.1176 43.263 22.3867 42.9529 23.9817C42.8266 24.6315 42.6096 25.235 42.3077 25.7753C42.0055 26.3162 41.6061 26.8166 41.1204 27.2631C40.539 27.8072 39.8809 28.2018 39.1663 28.434C38.463 28.6631 37.5598 28.7792 36.4817 28.7792H34.3091L33.6889 31.9712C33.6648 32.0951 33.5563 32.1846 33.43 32.1846H30.6399Z"
                  fill="black"/>
            <path d="M35.9612 21.661H37.4383C38.6177 21.661 39.0274 21.9198 39.1666 22.0741C39.3976 22.3301 39.4412 22.8701 39.2927 23.6353C39.1259 24.4922 38.8167 25.0998 38.3737 25.4409C37.92 25.7901 37.1826 25.9671 36.1819 25.9671H35.1244L35.9612 21.661ZM38.4949 18.5853H33.1295C32.8771 18.5853 32.6601 18.7642 32.6119 19.0119L30.1225 31.8204C30.0924 31.975 30.133 32.1349 30.2331 32.2564C30.3333 32.3779 30.4825 32.4482 30.64 32.4482H33.4302C33.6826 32.4482 33.8996 32.2693 33.9478 32.0216L34.5267 29.0429H36.4819C37.5876 29.0429 38.5184 28.9223 39.2482 28.6846C39.9988 28.4408 40.6896 28.0272 41.3008 27.4555C41.8062 26.9906 42.2224 26.4687 42.5379 25.904C42.8535 25.3392 43.0802 24.7094 43.2118 24.032C43.5383 22.3531 43.273 21.0087 42.4236 20.0364C41.5824 19.0735 40.2606 18.5853 38.4949 18.5853ZM34.4847 26.4944H36.1819C37.3068 26.4944 38.1447 26.2825 38.6953 25.8587C39.2461 25.4348 39.6173 24.7272 39.8103 23.7358C39.995 22.7839 39.9109 22.1121 39.558 21.7208C39.2047 21.3295 38.4983 21.1338 37.4383 21.1338H35.5266L34.4847 26.4944ZM38.4949 19.1125C40.1089 19.1125 41.2864 19.5361 42.0266 20.3834C42.7667 21.2306 42.9895 22.4132 42.6942 23.9315C42.5726 24.5569 42.3671 25.1288 42.0777 25.6468C41.788 26.1652 41.4096 26.6392 40.9421 27.0691C40.385 27.5904 39.766 27.962 39.085 28.1833C38.4039 28.4052 37.5364 28.5156 36.4819 28.5156H34.0919L33.4302 31.921H30.64L33.1295 19.1125H38.4949Z"
                  fill="white"/>
        </g>
    </g>
    <defs>
        <radialGradient id="paint0_radial_541_1489" cx="0" cy="0" r="1" gradientUnits="userSpaceOnUse"
                        gradientTransform="translate(15.7911 16.4762) scale(31.9053 31.9053)">
            <stop stop-color="#AEB2D5"/>
            <stop offset="0.3" stop-color="#AEB2D5"/>
            <stop offset="0.75" stop-color="#484C89"/>
            <stop offset="1" stop-color="#484C89"/>
        </radialGradient>
        <clipPath id="clip0_541_1489">
            <rect width="50" height="50" fill="white" transform="translate(0.5)"/>
        </clipPath>
    </defs>
</svg>
