<svg width="31" height="31" viewBox="0 0 31 31" fill="none" xmlns="http://www.w3.org/2000/svg">
    <g clip-path="url(#clip0_680_2006)">
        <path d="M14.5522 15.6504V24.8199C14.5522 25.4179 14.0539 26.0159 13.3562 26.0159H11.3629C11.2632 26.0159 11.2632 25.9162 11.2632 25.9162V16.7468C11.2632 16.1488 11.7615 15.5508 12.4592 15.5508H14.4526C14.4526 15.5508 14.5522 15.5508 14.5522 15.6504Z"
              fill="white"/>
        <path d="M9.07053 1.69595V12.4601C9.07053 12.5597 8.97086 12.5597 8.97086 12.5597H6.97751C6.3795 12.5597 5.78149 12.0614 5.78149 11.3637V0.699277C5.78149 0.599609 5.88116 0.599609 5.88116 0.599609H7.87452C8.57219 0.599609 9.07053 1.09795 9.07053 1.69595Z"
              fill="white"/>
        <path d="M9.07053 21.0313V29.3037C9.07053 29.9017 8.57219 30.4997 7.87452 30.4997H5.88116C5.78149 30.4997 5.78149 30.4001 5.78149 30.4001V22.1277C5.78149 21.5296 6.27983 20.9316 6.97751 20.9316H8.97086C9.07053 20.9316 9.07053 21.0313 9.07053 21.0313Z"
              fill="white"/>
        <path d="M3.58878 23.9219V29.304C3.58878 29.902 3.09044 30.5 2.39277 30.5H0.399414C0.499082 30.5 0.399414 30.4003 0.399414 30.4003V25.0183C0.399414 24.4203 0.897753 23.8223 1.59543 23.8223H3.58878C3.58878 23.8223 3.58878 23.8223 3.58878 23.9219Z"
              fill="white"/>
        <path d="M14.5522 6.18033V10.8647C14.5522 10.9644 14.4526 10.9644 14.4526 10.9644H12.4592C11.8612 10.9644 11.2632 10.466 11.2632 9.76837V5.18365C11.2632 5.08398 11.3629 5.08398 11.3629 5.08398H13.3562C14.0539 5.08398 14.5522 5.58232 14.5522 6.18033Z"
              fill="white"/>
        <path d="M3.58878 1.69595V7.07801C3.58878 7.17768 3.48911 7.17768 3.48911 7.17768H1.49576C0.897753 7.27735 0.399414 6.77901 0.399414 6.08134V0.699277C0.399414 0.599609 0.499082 0.599609 0.499082 0.599609H2.49244C3.09044 0.599609 3.58878 1.09795 3.58878 1.69595Z"
              fill="white"/>
        <path d="M30.1006 30.4005V22.6264C30.1006 21.9287 29.8016 21.1314 29.3033 20.633L26.5126 17.7427C26.0142 17.2443 25.3165 16.9453 24.5192 16.9453H16.8448C16.7451 16.9453 16.7451 17.045 16.7451 17.045V24.8191C16.7451 25.5167 17.0441 26.3141 17.5425 26.8124L20.3332 29.7028C20.8315 30.2011 21.5292 30.5001 22.3265 30.5001H30.0009L30.1006 30.4005Z"
              fill="white"/>
        <path d="M30.1006 0.599668V8.37375C30.1006 9.07143 29.8016 9.86877 29.3033 10.3671L26.5126 13.2575C26.0142 13.7558 25.3165 14.0548 24.5192 14.0548H16.8448C16.7451 14.0548 16.7451 13.9551 16.7451 13.9551V6.18106C16.7451 5.48339 17.0441 4.68605 17.5425 4.18771L20.3332 1.29734C20.8315 0.799003 21.5292 0.5 22.3265 0.5H30.0009L30.1006 0.599668Z"
              fill="white"/>
    </g>
    <defs>
        <clipPath id="clip0_680_2006">
            <rect width="30" height="30" fill="white" transform="translate(0.25 0.5)"/>
        </clipPath>
    </defs>
</svg>
