<svg width="51" height="50" viewBox="0 0 51 50" fill="none" xmlns="http://www.w3.org/2000/svg">
    <g clip-path="url(#clip0_541_1547)">
        <path d="M45.9307 35.995C39.7708 44.2022 26.6124 41.4319 18.1761 41.8304C18.1761 41.8304 16.6826 41.9134 15.1784 42.161C15.1784 42.161 15.7472 41.9184 16.4726 41.6683C22.3978 39.6193 25.1979 39.2076 28.7982 37.3583C35.5629 33.8931 42.2952 26.345 43.6651 18.5041C41.0903 26.0453 33.2592 32.5359 26.1287 35.1716C21.2481 36.9725 12.4221 38.7252 12.4208 38.726C12.425 38.7322 12.0691 38.5412 12.0641 38.5371C6.06176 35.6168 5.88856 22.6166 16.7901 18.426C21.5697 16.5874 26.1416 17.5972 31.3086 16.3674C36.8195 15.0571 43.2021 10.9263 45.7964 5.52577C48.7048 14.1522 52.1985 27.6484 45.9307 35.995ZM46.0378 2.85264C45.3044 4.59487 44.4095 6.16481 43.3778 7.56905C38.8366 2.90841 32.4982 0.00460052 25.4922 0.00460052C11.7107 0.00460052 0.5 11.2166 0.5 24.9955C0.5 32.2189 3.58325 38.7335 8.49892 43.2999L9.04621 43.7847C8.13228 43.0394 7.99173 41.6973 8.73248 40.7825C9.47776 39.8673 10.8212 39.7255 11.7356 40.4667C12.6524 41.2095 12.7921 42.555 12.0497 43.4714C11.3102 44.3882 9.96429 44.5267 9.0487 43.7868L9.42113 44.1167C13.7693 47.7778 19.3744 49.9893 25.4922 49.9893C38.6651 49.9893 49.4819 39.7379 50.4078 26.799C51.0935 20.4638 49.2223 12.4194 46.0378 2.85264Z"
              fill="#5FB832"/>
    </g>
    <defs>
        <clipPath id="clip0_541_1547">
            <rect width="50" height="50" fill="white" transform="translate(0.5)"/>
        </clipPath>
    </defs>
</svg>
