<svg width="51" height="51" viewBox="0 0 51 51" fill="none" xmlns="http://www.w3.org/2000/svg">
    <path d="M50.4774 14.8146C50.4774 14.31 50.4774 13.8054 50.4774 13.3009C50.4774 12.1908 50.3765 11.0807 50.1747 9.97066C49.9729 8.8606 49.6701 7.85146 49.1655 6.84231C48.661 5.83317 48.0555 4.92493 47.2482 4.21853C46.4408 3.41121 45.5326 2.80572 44.6244 2.30115C43.6152 1.79658 42.6061 1.49383 41.496 1.292C40.386 1.09017 39.2759 0.989258 38.1658 0.989258C37.6613 0.989258 37.1567 0.989258 36.6521 0.989258C36.0466 0.989258 35.4411 0.989258 34.8357 0.989258H21.6158H16.1664C15.5609 0.989258 14.9555 0.989258 14.35 0.989258C13.8454 0.989258 13.3408 0.989258 12.8363 0.989258C12.5335 0.989258 12.3317 0.989258 12.0289 0.989258C11.2216 0.989258 10.4143 1.09017 9.60698 1.292C8.69875 1.49383 7.99235 1.69566 7.18503 1.99841C6.9832 2.09932 6.68046 2.20023 6.47863 2.30115C5.77222 2.70481 5.06582 3.10847 4.46033 3.71396C4.15759 3.91578 3.95576 4.0167 3.75393 4.21853C3.04753 5.02585 2.34112 5.93408 1.83655 6.94323C1.33198 7.95237 1.02923 8.96152 0.827402 10.0716C0.625573 11.0807 0.625573 12.1908 0.524658 13.3009C0.524658 13.8054 0.524658 14.31 0.524658 14.8146C0.524658 15.4201 0.524658 16.0255 0.524658 16.631V24.8051V35.3003C0.524658 35.9057 0.524658 36.5112 0.524658 37.1167C0.524658 37.6213 0.524658 38.1259 0.524658 38.6304C0.524658 39.7405 0.625573 40.8506 0.827402 41.9606C1.02923 43.0707 1.33198 44.0798 1.83655 45.089C2.34112 46.0981 2.94661 47.0064 3.75393 47.7128C4.56125 48.4192 5.46948 49.1256 6.47863 49.6301C7.48777 50.1347 8.49692 50.4375 9.60698 50.6393C10.717 50.8411 11.8271 50.942 12.9372 50.942C13.4417 50.942 13.9463 50.942 14.4509 50.942C15.0564 50.942 15.6619 50.942 16.2674 50.942H34.8357C35.4411 50.942 36.0466 50.942 36.6521 50.942C37.1567 50.942 37.6613 50.942 38.1658 50.942C39.2759 50.942 40.386 50.8411 41.496 50.6393C42.6061 50.4375 43.6152 50.1347 44.6244 49.6301C45.6335 49.1256 46.5418 48.5201 47.2482 47.7128C48.0555 46.9054 48.661 45.9972 49.1655 45.089C49.6701 44.0798 49.9729 43.0707 50.1747 41.9606C50.3765 40.8506 50.4774 39.7405 50.4774 38.6304C50.4774 38.1259 50.4774 37.6213 50.4774 37.1167C50.4774 36.5112 50.4774 35.9057 50.4774 35.3003V16.631C50.4774 16.0255 50.4774 15.4201 50.4774 14.8146Z"
          fill="#F05138"/>
    <path d="M40.0831 31.8696C40.0831 31.7687 40.0831 31.7687 40.0831 31.8696C40.1841 31.6677 40.1841 31.4659 40.285 31.2641C42.4042 22.9891 37.2575 13.2004 28.7807 8.05371C32.5145 13.0994 34.2301 19.2552 32.7164 24.7046C32.6155 25.2092 32.4136 25.6129 32.2118 26.1174C32.01 26.0165 31.8081 25.8147 31.5054 25.7138C31.5054 25.7138 23.0286 20.4662 13.7444 11.1821C13.5426 10.9802 18.6892 18.5488 24.5423 24.7046C21.7167 23.09 14.0471 17.5397 9.10233 13.0994C9.70782 14.1086 10.4142 15.0168 11.2215 16.026C15.2581 21.1726 20.6066 27.5302 26.9642 32.4751C22.524 35.1998 16.1664 35.4016 9.90965 32.4751C8.39592 31.7687 6.8822 30.8604 5.57031 29.8513C8.19409 34.0897 12.3316 37.8235 17.2764 39.9427C23.2304 42.4656 29.0834 42.3647 33.5237 39.9427C33.5237 39.9427 33.5237 39.9427 33.6246 39.9427C33.8264 39.8418 34.0283 39.7409 34.1292 39.64C36.2484 38.5299 40.3859 37.4199 42.7069 41.7592C43.2115 42.7684 44.4225 37.1171 40.0831 31.8696Z"
          fill="white"/>
</svg>
