<svg width="50" height="50" viewBox="0 0 50 50" fill="none" xmlns="http://www.w3.org/2000/svg">
    <path d="M23.2573 16.1406V43.5338H0.567993L23.2573 16.1406ZM23.2573 6.31055C23.2573 9.31934 22.0621 12.2049 19.9345 14.3324C17.807 16.46 14.9214 17.6552 11.9127 17.6552C8.90386 17.6552 6.01831 16.46 3.89077 14.3324C1.76323 12.2049 0.567993 9.31934 0.567993 6.31055L23.2573 6.31055ZM26.9952 43.5363C26.9952 40.5275 28.1904 37.6419 30.318 35.5144C32.4455 33.3869 35.331 32.1916 38.3398 32.1916C41.3486 32.1916 44.2342 33.3869 46.3617 35.5144C48.4893 37.6419 49.6845 40.5275 49.6845 43.5363H26.9952ZM26.9952 33.7062V6.31055H49.6894L26.9952 33.7038V33.7062Z"
          fill="#03363D"/>
</svg>
